<svg width="680" height="680" viewBox="0 0 680 680" fill="none" xmlns="http://www.w3.org/2000/svg">
<g opacity="0.1">
<mask id="mask0_422_1426" style="mask-type:alpha" maskUnits="userSpaceOnUse" x="0" y="0" width="680" height="680">
<rect width="680" height="680" fill="url(#paint0_radial_422_1426)"/>
</mask>
<g mask="url(#mask0_422_1426)">
<g clip-path="url(#clip0_422_1426)">
<path d="M197.588 518.541C196.568 516.541 195.04 513.235 192.903 512.248C189.397 510.629 185.663 513.339 182.515 514.757C176.688 517.381 170.117 519.063 164.585 514.856C158.2 510 156.296 500.818 149.931 495.823C141.979 489.582 131.644 488.426 122.806 484.228C115.312 480.669 109.124 474.771 101.623 471.166C88.2749 464.753 67.3806 461.663 52.7456 463.083C39.7925 464.341 26.7066 467.809 14.4236 472.255C6.92827 474.969 0.0642416 479.035 -7.82104 480.506C-26.6153 484.012 -48.8394 472.498 -64.5428 487.908C-77.9936 501.107 -78.5389 522.601 -71.7797 539.47C-67.8379 549.305 -58.4077 558.662 -64.205 569.711C-68.9418 578.738 -79.4061 581.589 -87.7097 585.557C-102.859 592.797 -115.965 605.325 -114.573 624.532" stroke="#F7F7FF" stroke-width="6" stroke-miterlimit="1.5" stroke-linecap="round" stroke-linejoin="round"/>
<path d="M-33.9126 592.653C-35.1539 588.752 -37.0753 584.322 -36.8907 580.172C-36.416 569.482 -25.6164 562.004 -16.3454 559.218C-12.2324 557.982 1.04429 554.454 4.99194 556.81C8.53836 558.927 10.0339 563.547 11.1955 567.256C11.8422 569.321 13.1728 572.251 12.7486 574.445C12.1616 577.481 8.19349 577.886 5.75684 578.547C0.434298 579.992 -4.39391 582.768 -8.51191 586.411C-13.624 590.934 -17.256 596.918 -18.919 603.517C-20.1144 608.261 -19.6676 615.391 -24.7956 618.038C-28.8042 620.106 -35.0724 615.596 -38.3629 613.753C-46.3467 609.281 -55.4959 605.114 -64.8567 606.368C-73.5991 607.54 -79.983 611.037 -85.4458 617.869C-88.0077 621.073 -89.6356 626.251 -87.1063 629.958C-84.377 633.957 -79.0903 633.549 -74.9377 632.529C-69.3951 631.167 -62.7085 629.629 -57.0052 630.817C-42.4918 633.84 -29.6388 653.243 -13.6858 647.971C-4.78554 645.031 -2.62738 630.843 2.27013 623.8C11.5867 610.404 28.6015 606.747 43.9812 608.646" stroke="#F7F7FF" stroke-width="6" stroke-miterlimit="1.5" stroke-linecap="round" stroke-linejoin="round"/>
<path d="M220.302 581.064C214.488 571.775 212.179 557.354 203.33 550.504C187.89 538.553 161.287 553.718 160.157 571.869C159.313 585.429 164.305 597.221 168.34 609.78C170.107 615.279 172.691 624.972 169.861 630.555C165.852 638.466 158.437 639.674 151.164 643.418C143.226 647.505 136.107 653.19 128.231 657.473C112.638 665.953 94.4136 673.195 77.5425 663.701C67.2239 657.894 59.5578 648.133 49.7014 641.573C41.2107 635.923 26.5846 631.71 20.4299 642.855C11.5518 658.933 31.3418 661.608 39.5615 667.504C47.1725 672.963 51.7464 681.379 58.8647 687.311C66.7149 693.852 92.5156 697.095 80.2468 714.001C77.5045 717.78 74.2883 720.906 71.7703 724.918C68.6464 729.894 64.9664 735.421 59.6484 738.277C52.141 742.308 49.2718 737.727 47.4652 730.298C43.5434 714.173 46.0832 698.064 29.7477 687.948C15.2305 678.959 -1.16213 683.458 -16.7924 680.127C-30.2144 677.266 -40.2303 667.756 -53.0762 663.96" stroke="#F7F7FF" stroke-width="6" stroke-miterlimit="1.5" stroke-linecap="round" stroke-linejoin="round"/>
<path d="M221.174 582.498C222.291 584.01 223.589 585.493 225.06 586.671C234.612 594.318 242.026 580.966 245.127 574.049C245.818 572.507 246.378 570.883 246.949 569.292C247.706 567.188 248.614 565.124 249.663 563.151C251.128 560.399 252.773 557.53 254.839 555.179C260.529 548.71 269.561 547.162 275.39 554.242C278.287 557.763 279.782 562.468 280.458 566.921C281.853 576.123 279.924 588.801 273.118 595.649C269.148 599.648 263.766 601.787 259.015 604.663C252.811 608.42 247.124 612.932 242.3 618.367C238.848 622.256 235.856 626.749 233.794 631.529C231.259 637.405 229.628 643.582 225.352 648.512C217.863 657.145 203.285 663.518 206.248 677.162C208.422 687.176 224.785 683.973 231.157 681.241C232.988 680.456 234.767 679.523 236.393 678.367C249.925 668.741 248.139 648.634 257.086 635.612C260.771 630.249 269.139 623.298 274.989 629.987C287.777 644.617 271.306 662.501 266.338 676.162C263.098 685.079 265.077 696.645 255.959 702.352C254.133 703.495 252.158 704.365 250.106 705.009C243.208 707.17 235.915 707.551 229.052 705.066C223.16 702.933 217.685 698.293 211.055 698.841" stroke="#F7F7FF" stroke-width="6" stroke-miterlimit="1.5" stroke-linecap="round" stroke-linejoin="round"/>
<path d="M190.116 573.679C186.609 591.504 200.814 602.206 201.056 619.1C201.35 639.548 179.329 664.799 167.908 680.689" stroke="#F7F7FF" stroke-width="6" stroke-miterlimit="1.5" stroke-linecap="round" stroke-linejoin="round"/>
<path d="M151.974 667.551C142.366 680.021 133.514 676.302 122.079 686.444C116.518 691.377 106.682 700.685 108.322 708.781C109.843 716.294 118.962 724.291 125.169 723.207C137.938 720.975 158.694 699.526 170.5 706.633C178.656 711.544 183.347 720.321 191.564 725.034C200.138 729.952 209.25 727.62 218.294 730.381C225.82 732.679 231.179 738.604 238.439 741.249C249.817 745.396 265.56 739.841 273.785 750.281C282.432 761.258 280.036 773.467 281.334 786.337C282.248 795.389 285.401 803.736 287.856 812.417" stroke="#F7F7FF" stroke-width="6" stroke-miterlimit="1.5" stroke-linecap="round" stroke-linejoin="round"/>
<path d="M116.642 369.582C116.642 379.772 108.295 388.864 115.191 422.045" stroke="#F7F7FF" stroke-width="6" stroke-miterlimit="1.5" stroke-linecap="round" stroke-linejoin="round"/>
<path d="M98.4329 392.598C84.7712 408.237 55.3256 427.735 37.9476 410.811C18.282 391.66 11.1311 404.594 8.26318 419.97" stroke="#F7F7FF" stroke-width="6" stroke-miterlimit="1.5" stroke-linecap="round" stroke-linejoin="round"/>
<path d="M16.3199 386.879C11.1456 402.076 7.91652 449.933 -18.8398 447.598" stroke="#F7F7FF" stroke-width="6" stroke-miterlimit="1.5" stroke-linecap="round" stroke-linejoin="round"/>
<path d="M9.1748 363.224C0.508337 369.641 -6.94565 376.986 -11.7776 387.435C-16.944 398.606 -18.0646 411.001 -28.473 418.065C-43.1405 428.019 -55.5563 415.601 -70.425 415.144C-92.3406 414.47 -116.592 444.603 -165.249 415.063" stroke="#F7F7FF" stroke-width="6" stroke-miterlimit="1.5" stroke-linecap="round" stroke-linejoin="round"/>
<path d="M22.3193 443.584C40.8301 439.513 60.4732 434.306 79.4453 438.077C94.9399 441.156 108.431 450.202 123.608 454.246C147.976 460.74 162.166 455.605 178.263 479.444" stroke="#F7F7FF" stroke-width="6" stroke-miterlimit="1.5" stroke-linecap="round" stroke-linejoin="round"/>
<path d="M213.794 448.297C204.555 461.284 193.164 476.759 195.42 493.723" stroke="#F7F7FF" stroke-width="6" stroke-miterlimit="1.5" stroke-linecap="round" stroke-linejoin="round"/>
<path d="M240.306 451.846C232.749 462.109 219.921 472.836 217.684 485.993C216.401 493.543 219.629 500.932 219.272 508.55C219.084 512.575 219.535 531.038 224.086 533.177C234.848 538.235 249.759 516.197 261.847 515.567" stroke="#F7F7FF" stroke-width="6" stroke-miterlimit="1.5" stroke-linecap="round" stroke-linejoin="round"/>
<path d="M234.629 493.389C248.585 491.621 262.719 489.753 275.797 484.371" stroke="#F7F7FF" stroke-width="6" stroke-miterlimit="1.5" stroke-linecap="round" stroke-linejoin="round"/>
<path d="M144.187 435.356C160.465 442.32 179.675 409.973 247.055 407.801" stroke="#F7F7FF" stroke-width="6" stroke-miterlimit="1.5" stroke-linecap="round" stroke-linejoin="round"/>
<path d="M144.187 435.356C160.465 442.32 179.675 409.973 247.055 407.801" stroke="#F7F7FF" stroke-width="6" stroke-miterlimit="1.5" stroke-linecap="round" stroke-linejoin="round"/>
<path d="M144.187 435.69C163.031 442.083 201.401 388.984 285.714 430.557" stroke="#F7F7FF" stroke-width="6" stroke-miterlimit="1.5" stroke-linecap="round" stroke-linejoin="round"/>
<path d="M136.813 604.591C142.511 634.962 97.9415 656.249 77.4242 634.64C64.3825 620.904 62.4452 600.492 69.4658 583.432C72.8022 575.324 87.3616 560.714 79.6379 552.793C76.4702 549.545 70.8412 550.793 67.0133 551.764C56.314 554.478 27.6913 573.773 27.5435 549.594C27.5285 547.113 27.888 544.588 28.7305 542.248C32.1892 532.636 43.1587 528.896 52.2778 526.716C72.2219 521.949 102.777 522.675 114.464 543.305C120.104 553.262 113.257 559.798 107.05 567.311C101.344 574.217 94.8895 582.856 91.6253 591.234C88.4977 599.261 88.4497 609.091 95.6928 614.845C101.82 619.714 110.432 615.054 113.609 609.039C116.785 603.024 116.107 595.884 119.22 589.895C122.319 583.932 127.649 579.44 130.938 573.57C134.687 566.876 136.062 559.071 139.222 552.068C141.883 546.172 145.912 537.639 143.4 531.071C140.668 523.929 128.956 525.982 122.699 521.081C115.011 515.058 107.694 508.135 98.8138 503.825C79.6533 494.529 53.9145 495.062 33.9474 501.691C23.5002 505.16 15.6078 514.597 4.79032 516.695C-9.02835 519.375 -20.3607 509.268 -32.8621 511.467C-41.7285 513.026 -45.6085 526.121 -39.5562 532.505C-27.7069 545.005 -10.5285 527.39 2.08187 534.64" stroke="#F7F7FF" stroke-width="6" stroke-miterlimit="1.5" stroke-linecap="round" stroke-linejoin="round"/>
<path d="M11.2124 706.959C-5.81201 711.989 -20.0277 718.578 -25.1328 737.051C-26.3536 741.47 -26.9728 745.9 -26.7231 750.487C-26.0496 762.871 -20.5814 780.921 -40.095 780.64C-61.8156 780.327 -55.9942 747 -53.8577 733.463C-53.1158 728.761 -52.697 723.069 -49.981 719.003C-45.3633 712.088 -35.9432 710.113 -31.6957 703.136C-28.8908 698.528 -32.2615 693.395 -35.8872 690.524C-55.4677 675.02 -81.9514 697.566 -83.295 718.498C-84.0532 730.32 -77.1896 743.124 -82.3639 754.551C-86.9491 764.677 -98.5035 763.602 -104.614 755.556C-110.092 748.345 -118.706 738.976 -119.158 730.298C-119.651 720.842 -117.922 712.525 -119.158 703.136C-120.539 692.647 -121.412 674.273 -113.044 667.504" stroke="#F7F7FF" stroke-width="6" stroke-miterlimit="1.5" stroke-linecap="round" stroke-linejoin="round"/>
</g>
<g clip-path="url(#clip1_422_1426)">
<path d="M197.588 101.021C196.568 99.0215 195.04 95.7156 192.903 94.729C189.397 93.1103 185.663 95.8204 182.515 97.2383C176.688 99.862 170.117 101.544 164.585 97.3368C158.2 92.4811 156.296 83.2986 149.931 78.3038C141.979 72.0627 131.644 70.9074 122.806 66.7092C115.312 63.1503 109.124 57.2516 101.623 53.6471C88.2749 47.2344 67.3806 44.144 52.7456 45.5644C39.7925 46.8219 26.7066 50.2898 14.4236 54.7364C6.92827 57.4495 0.0642416 61.5157 -7.82104 62.987C-26.6153 66.4934 -48.8394 54.979 -64.5428 70.3893C-77.9936 83.5883 -78.5389 105.082 -71.7797 121.95C-67.8379 131.786 -58.4077 141.143 -64.205 152.191C-68.9418 161.219 -79.4061 164.069 -87.7097 168.038C-102.859 175.278 -115.965 187.806 -114.573 207.013" stroke="#F7F7FF" stroke-width="6" stroke-miterlimit="1.5" stroke-linecap="round" stroke-linejoin="round"/>
<path d="M-33.9126 175.134C-35.1539 171.233 -37.0753 166.803 -36.8907 162.653C-36.416 151.963 -25.6164 144.485 -16.3454 141.699C-12.2324 140.463 1.04429 136.935 4.99194 139.291C8.53836 141.408 10.0339 146.028 11.1955 149.737C11.8422 151.802 13.1728 154.732 12.7486 156.926C12.1616 159.962 8.19349 160.367 5.75684 161.028C0.434298 162.473 -4.39391 165.249 -8.51191 168.892C-13.624 173.415 -17.256 179.399 -18.919 185.998C-20.1144 190.742 -19.6676 197.872 -24.7956 200.519C-28.8042 202.587 -35.0724 198.077 -38.3629 196.234C-46.3467 191.762 -55.4959 187.595 -64.8567 188.849C-73.5991 190.021 -79.983 193.518 -85.4458 200.35C-88.0077 203.554 -89.6356 208.732 -87.1063 212.439C-84.377 216.438 -79.0903 216.03 -74.9377 215.01C-69.3951 213.648 -62.7085 212.11 -57.0052 213.298C-42.4918 216.321 -29.6388 235.724 -13.6858 230.452C-4.78554 227.512 -2.62738 213.324 2.27013 206.281C11.5867 192.885 28.6015 189.228 43.9812 191.127" stroke="#F7F7FF" stroke-width="6" stroke-miterlimit="1.5" stroke-linecap="round" stroke-linejoin="round"/>
<path d="M220.302 163.545C214.488 154.256 212.179 139.835 203.33 132.985C187.89 121.034 161.287 136.199 160.157 154.35C159.313 167.91 164.305 179.702 168.34 192.26C170.107 197.76 172.691 207.453 169.861 213.035C165.852 220.947 158.437 222.155 151.164 225.899C143.226 229.986 136.107 235.671 128.231 239.954C112.638 248.434 94.4136 255.676 77.5425 246.182C67.2239 240.375 59.5578 230.613 49.7014 224.054C41.2107 218.404 26.5846 214.191 20.4299 225.336C11.5518 241.414 31.3418 244.089 39.5615 249.985C47.1725 255.444 51.7464 263.86 58.8647 269.791C66.7149 276.333 92.5156 279.576 80.2468 296.482C77.5045 300.261 74.2883 303.387 71.7703 307.399C68.6464 312.375 64.9664 317.902 59.6484 320.758C52.141 324.789 49.2718 320.208 47.4652 312.779C43.5434 296.654 46.0832 280.545 29.7477 270.429C15.2305 261.44 -1.16213 265.939 -16.7924 262.608C-30.2144 259.747 -40.2303 250.237 -53.0762 246.441" stroke="#F7F7FF" stroke-width="6" stroke-miterlimit="1.5" stroke-linecap="round" stroke-linejoin="round"/>
<path d="M221.174 164.979C222.291 166.491 223.589 167.974 225.06 169.152C234.612 176.799 242.026 163.447 245.127 156.53C245.818 154.988 246.378 153.364 246.949 151.773C247.706 149.669 248.614 147.605 249.663 145.632C251.128 142.88 252.773 140.011 254.839 137.66C260.529 131.191 269.561 129.643 275.39 136.723C278.287 140.244 279.782 144.949 280.458 149.402C281.853 158.604 279.924 171.281 273.118 178.13C269.148 182.129 263.766 184.268 259.015 187.144C252.811 190.901 247.124 195.413 242.3 200.848C238.848 204.737 235.856 209.23 233.794 214.01C231.259 219.886 229.628 226.063 225.352 230.993C217.863 239.626 203.285 245.999 206.248 259.643C208.422 269.657 224.785 266.453 231.157 263.722C232.988 262.937 234.767 262.004 236.393 260.847C249.925 251.222 248.139 231.115 257.086 218.093C260.771 212.73 269.139 205.779 274.989 212.468C287.777 227.098 271.306 244.982 266.338 258.643C263.098 267.56 265.077 279.126 255.959 284.833C254.133 285.976 252.158 286.846 250.106 287.49C243.208 289.651 235.915 290.032 229.052 287.547C223.16 285.413 217.685 280.774 211.055 281.322" stroke="#F7F7FF" stroke-width="6" stroke-miterlimit="1.5" stroke-linecap="round" stroke-linejoin="round"/>
<path d="M190.116 156.16C186.609 173.985 200.814 184.687 201.056 201.581C201.35 222.028 179.329 247.28 167.908 263.17" stroke="#F7F7FF" stroke-width="6" stroke-miterlimit="1.5" stroke-linecap="round" stroke-linejoin="round"/>
<path d="M151.974 250.032C142.366 262.502 133.514 258.783 122.079 268.925C116.518 273.858 106.682 283.166 108.322 291.262C109.843 298.775 118.962 306.772 125.169 305.688C137.938 303.456 158.694 282.007 170.5 289.114C178.656 294.025 183.347 302.802 191.564 307.515C200.138 312.433 209.25 310.101 218.294 312.862C225.82 315.16 231.179 321.085 238.439 323.73C249.817 327.877 265.56 322.322 273.785 332.762C282.432 343.739 280.036 355.948 281.334 368.817C282.248 377.87 285.401 386.217 287.856 394.897" stroke="#F7F7FF" stroke-width="6" stroke-miterlimit="1.5" stroke-linecap="round" stroke-linejoin="round"/>
<path d="M188.104 372.328C208.853 384.183 223.323 393.445 248.198 391.637C262.865 390.571 265.541 368.014 255.029 359.73C247.505 353.801 236.018 355.396 227.102 355.358C214.62 355.306 200.874 353.474 189.434 348.228C178.459 343.194 171.052 333.107 161.167 326.474C158.535 324.708 152.607 320.754 150.232 324.195C141.525 336.814 155.228 351.117 160.738 361.969C165.38 371.113 167.277 382.146 168.769 392.225" stroke="#F7F7FF" stroke-width="6" stroke-miterlimit="1.5" stroke-linecap="round" stroke-linejoin="round"/>
<path d="M-0.230957 330.638C6.66647 321.299 14.824 321.352 22.3899 330.296C31.5494 341.122 33.7222 357 50.476 357.868C75.4763 359.164 78.7183 326.048 100.308 316.111" stroke="#F7F7FF" stroke-width="6" stroke-miterlimit="1.5" stroke-linecap="round" stroke-linejoin="round"/>
<path d="M23.9902 366.027C32.1502 379.134 47.0887 388.727 62.9874 384.477C75.8266 381.044 88.7184 370.019 97.7427 360.633C103.066 355.096 112.778 336.64 121.963 339.551C128.656 341.672 132.24 349.158 133.494 355.57C136.127 369.037 131.08 382.529 138.015 395.273" stroke="#F7F7FF" stroke-width="6" stroke-miterlimit="1.5" stroke-linecap="round" stroke-linejoin="round"/>
<path d="M116.642 369.583C116.642 379.773 108.295 388.865 115.191 422.046" stroke="#F7F7FF" stroke-width="6" stroke-miterlimit="1.5" stroke-linecap="round" stroke-linejoin="round"/>
<path d="M116.642 -47.937C116.642 -37.747 108.295 -28.6551 115.191 4.52606" stroke="#F7F7FF" stroke-width="6" stroke-miterlimit="1.5" stroke-linecap="round" stroke-linejoin="round"/>
<path d="M98.4272 392.599C84.7656 408.239 55.3199 427.737 37.9419 410.812C7.5544 381.219 7.04796 428.238 6.05176 442.494" stroke="#F7F7FF" stroke-width="6" stroke-miterlimit="1.5" stroke-linecap="round" stroke-linejoin="round"/>
<path d="M98.4272 392.599C84.7656 408.239 55.3199 427.737 37.9419 410.812C7.5544 381.219 7.04796 428.238 6.05176 442.494" stroke="#F7F7FF" stroke-width="6" stroke-miterlimit="1.5" stroke-linecap="round" stroke-linejoin="round"/>
<path d="M98.4329 -24.9214C84.7712 -9.28174 55.3256 10.216 37.9476 -6.70816C18.282 -25.8594 11.1311 -12.9253 8.26318 2.45118" stroke="#F7F7FF" stroke-width="6" stroke-miterlimit="1.5" stroke-linecap="round" stroke-linejoin="round"/>
<path d="M16.3199 -30.6401C11.1456 -15.4433 7.91652 32.4144 -18.8398 30.0789" stroke="#F7F7FF" stroke-width="6" stroke-miterlimit="1.5" stroke-linecap="round" stroke-linejoin="round"/>
<path d="M9.1748 -54.2949C0.508337 -47.8781 -6.94565 -40.5332 -11.7776 -30.0843C-16.944 -18.9131 -18.0646 -6.51807 -28.473 0.545662C-43.1405 10.5001 -55.5563 -1.91833 -70.425 -2.37531C-92.3406 -3.04877 -116.592 27.0844 -165.249 -2.45643" stroke="#F7F7FF" stroke-width="6" stroke-miterlimit="1.5" stroke-linecap="round" stroke-linejoin="round"/>
<path d="M9.17164 363.497C0.505175 369.914 -6.94881 377.259 -11.7808 387.708C-16.9472 398.879 -18.0678 411.274 -28.4761 418.338C-43.1436 428.292 -55.5594 415.874 -70.4281 415.417C-94.5984 412.166 -107.317 444.741 -164.479 415.973" stroke="#F7F7FF" stroke-width="6" stroke-miterlimit="1.5" stroke-linecap="round" stroke-linejoin="round"/>
<path d="M22.3193 26.0652C40.8301 21.9944 60.4732 16.7874 79.4453 20.5578C94.9399 23.6366 108.431 32.683 123.608 36.7273C147.976 43.2209 162.166 38.0855 178.263 61.9249" stroke="#F7F7FF" stroke-width="6" stroke-miterlimit="1.5" stroke-linecap="round" stroke-linejoin="round"/>
<path d="M213.794 30.7778C204.555 43.7652 193.164 59.2398 195.42 76.204" stroke="#F7F7FF" stroke-width="6" stroke-miterlimit="1.5" stroke-linecap="round" stroke-linejoin="round"/>
<path d="M240.306 34.3271C232.749 44.5898 219.921 55.3171 217.684 68.4745C216.401 76.0236 219.629 83.4133 219.272 91.031C219.084 95.0555 219.535 113.519 224.086 115.658C234.848 120.716 249.759 98.6779 261.847 98.0478" stroke="#F7F7FF" stroke-width="6" stroke-miterlimit="1.5" stroke-linecap="round" stroke-linejoin="round"/>
<path d="M234.629 75.87C248.585 74.1018 262.719 72.2338 275.797 66.8516" stroke="#F7F7FF" stroke-width="6" stroke-miterlimit="1.5" stroke-linecap="round" stroke-linejoin="round"/>
<path d="M144.187 17.8374C160.465 24.801 179.675 -7.54595 247.055 -9.71826" stroke="#F7F7FF" stroke-width="6" stroke-miterlimit="1.5" stroke-linecap="round" stroke-linejoin="round"/>
<path d="M144.187 17.8374C160.465 24.801 179.675 -7.54595 247.055 -9.71826" stroke="#F7F7FF" stroke-width="6" stroke-miterlimit="1.5" stroke-linecap="round" stroke-linejoin="round"/>
<path d="M144.187 435.61C160.465 442.573 201.052 389.637 280.754 427.31" stroke="#F7F7FF" stroke-width="6" stroke-miterlimit="1.5" stroke-linecap="round" stroke-linejoin="round"/>
<path d="M144.187 18.171C163.031 24.5644 201.401 -28.5352 285.714 13.0377" stroke="#F7F7FF" stroke-width="6" stroke-miterlimit="1.5" stroke-linecap="round" stroke-linejoin="round"/>
<path d="M136.813 187.071C142.511 217.443 97.9415 238.73 77.4242 217.121C64.3825 203.385 62.4452 182.973 69.4658 165.913C72.8022 157.805 87.3616 143.195 79.6379 135.274C76.4702 132.026 70.8412 133.274 67.0133 134.245C56.314 136.959 27.6913 156.254 27.5435 132.075C27.5285 129.594 27.888 127.069 28.7305 124.729C32.1892 115.117 43.1587 111.377 52.2778 109.197C72.2219 104.43 102.777 105.156 114.464 125.786C120.104 135.743 113.257 142.279 107.05 149.792C101.344 156.698 94.8895 165.337 91.6253 173.715C88.4977 181.742 88.4497 191.572 95.6928 197.326C101.82 202.194 110.432 197.535 113.609 191.52C116.785 185.505 116.107 178.365 119.22 172.376C122.319 166.413 127.649 161.921 130.938 156.051C134.687 149.357 136.062 141.552 139.222 134.549C141.883 128.652 145.912 120.12 143.4 113.552C140.668 106.41 128.956 108.463 122.699 103.562C115.011 97.5389 107.694 90.6156 98.8138 86.3064C79.6533 77.0103 53.9145 77.5426 33.9474 84.172C23.5002 87.6412 15.6078 97.078 4.79032 99.176C-9.02835 101.856 -20.3607 91.7487 -32.8621 93.9478C-41.7285 95.5072 -45.6085 108.602 -39.5562 114.986C-27.7069 127.486 -10.5285 109.871 2.08187 117.121" stroke="#F7F7FF" stroke-width="6" stroke-miterlimit="1.5" stroke-linecap="round" stroke-linejoin="round"/>
<path d="M11.2124 289.44C-5.81201 294.47 -20.0277 301.059 -25.1328 319.532C-26.3536 323.951 -26.9728 328.381 -26.7231 332.968C-26.0496 345.352 -20.5814 363.402 -40.095 363.121C-61.8156 362.808 -55.9942 329.481 -53.8577 315.944C-53.1158 311.242 -52.697 305.55 -49.981 301.484C-45.3633 294.568 -35.9432 292.594 -31.6957 285.617C-28.8908 281.009 -32.2615 275.876 -35.8872 273.005C-55.4677 257.501 -81.9514 280.047 -83.295 300.979C-84.0532 312.801 -77.1896 325.605 -82.3639 337.032C-86.9491 347.158 -98.5035 346.082 -104.614 338.037C-110.092 330.826 -118.706 321.457 -119.158 312.779C-119.651 303.323 -117.922 295.006 -119.158 285.617C-120.539 275.127 -121.412 256.754 -113.044 249.985" stroke="#F7F7FF" stroke-width="6" stroke-miterlimit="1.5" stroke-linecap="round" stroke-linejoin="round"/>
</g>
<g clip-path="url(#clip2_422_1426)">
<path d="M615.106 518.541C614.086 516.541 612.558 513.235 610.421 512.248C606.914 510.629 603.181 513.339 600.033 514.757C594.206 517.381 587.634 519.063 582.103 514.856C575.718 510 573.813 500.818 567.449 495.823C559.496 489.582 549.162 488.426 540.323 484.228C532.83 480.669 526.641 474.771 519.14 471.166C505.792 464.753 484.898 461.663 470.263 463.083C457.31 464.341 444.224 467.809 431.941 472.255C424.446 474.969 417.582 479.035 409.697 480.506C390.902 484.012 368.678 472.498 352.975 487.908C339.524 501.107 338.979 522.601 345.738 539.47C349.68 549.305 359.11 558.662 353.313 569.711C348.576 578.738 338.111 581.589 329.808 585.557C314.658 592.797 301.553 605.325 302.944 624.532" stroke="#F7F7FF" stroke-width="6" stroke-miterlimit="1.5" stroke-linecap="round" stroke-linejoin="round"/>
<path d="M383.605 592.653C382.364 588.752 380.442 584.322 380.627 580.172C381.102 569.482 391.901 562.004 401.172 559.218C405.285 557.982 418.562 554.454 422.51 556.81C426.056 558.927 427.551 563.547 428.713 567.256C429.36 569.321 430.69 572.251 430.266 574.445C429.679 577.481 425.711 577.886 423.274 578.547C417.952 579.992 413.124 582.768 409.006 586.411C403.894 590.934 400.262 596.918 398.599 603.517C397.403 608.261 397.85 615.391 392.722 618.038C388.713 620.106 382.445 615.596 379.155 613.753C371.171 609.281 362.022 605.114 352.661 606.368C343.918 607.54 337.535 611.037 332.072 617.869C329.51 621.073 327.882 626.251 330.411 629.958C333.141 633.957 338.427 633.549 342.58 632.529C348.122 631.167 354.809 629.629 360.512 630.817C375.026 633.84 387.879 653.243 403.832 647.971C412.732 645.031 414.89 630.843 419.788 623.8C429.104 610.404 446.119 606.747 461.499 608.646" stroke="#F7F7FF" stroke-width="6" stroke-miterlimit="1.5" stroke-linecap="round" stroke-linejoin="round"/>
<path d="M637.819 581.064C632.006 571.775 629.697 557.354 620.848 550.504C605.407 538.553 578.804 553.718 577.674 571.869C576.831 585.429 581.822 597.221 585.858 609.78C587.624 615.279 590.208 624.972 587.379 630.555C583.369 638.466 575.955 639.674 568.682 643.418C560.744 647.505 553.625 653.19 545.748 657.473C530.156 665.953 511.931 673.195 495.06 663.701C484.741 657.894 477.075 648.133 467.219 641.573C458.728 635.923 444.102 631.71 437.947 642.855C429.069 658.933 448.859 661.608 457.079 667.504C464.69 672.963 469.264 681.379 476.382 687.311C484.233 693.852 510.033 697.095 497.764 714.001C495.022 717.78 491.806 720.906 489.288 724.918C486.164 729.894 482.484 735.421 477.166 738.277C469.659 742.308 466.789 737.727 464.983 730.298C461.061 714.173 463.601 698.064 447.265 687.948C432.748 678.959 416.355 683.458 400.725 680.127C387.303 677.266 377.287 667.756 364.441 663.96" stroke="#F7F7FF" stroke-width="6" stroke-miterlimit="1.5" stroke-linecap="round" stroke-linejoin="round"/>
<path d="M638.692 582.498C639.808 584.01 641.106 585.493 642.578 586.671C652.129 594.318 659.544 580.966 662.644 574.049C663.336 572.507 663.895 570.883 664.467 569.292C665.223 567.188 666.131 565.124 667.18 563.151C668.645 560.399 670.29 557.53 672.357 555.179C678.046 548.71 687.079 547.162 692.907 554.242C695.805 557.763 697.3 562.468 697.976 566.921C699.37 576.123 697.442 588.801 690.636 595.649C686.665 599.648 681.284 601.787 676.532 604.663C670.329 608.42 664.642 612.932 659.818 618.367C656.365 622.256 653.374 626.749 651.312 631.529C648.777 637.405 647.145 643.582 642.869 648.512C635.381 657.145 620.803 663.518 623.765 677.162C625.94 687.176 642.303 683.973 648.675 681.241C650.505 680.456 652.285 679.523 653.91 678.367C667.442 668.741 665.656 648.634 674.604 635.612C678.289 630.249 686.657 623.298 692.506 629.987C705.295 644.617 688.824 662.501 683.855 676.162C680.615 685.079 682.594 696.645 673.477 702.352C671.651 703.495 669.676 704.365 667.623 705.009C660.726 707.17 653.432 707.551 646.569 705.066C640.678 702.933 635.203 698.293 628.572 698.841" stroke="#F7F7FF" stroke-width="6" stroke-miterlimit="1.5" stroke-linecap="round" stroke-linejoin="round"/>
<path d="M221.175 582.498C222.292 584.01 223.59 585.493 225.061 586.671C234.613 594.318 242.027 580.966 245.127 574.049C245.819 572.507 246.379 570.883 246.95 569.292C247.707 567.188 248.615 565.124 249.664 563.151C251.129 560.399 252.774 557.53 254.84 555.179C260.53 548.71 269.564 547.162 275.39 554.242C278.287 557.763 279.785 562.468 280.46 566.921C281.854 576.123 279.924 588.801 273.121 595.649C269.149 599.648 263.766 601.787 259.016 604.663C252.812 608.42 247.125 612.932 242.302 618.367C238.849 622.256 235.857 626.749 233.795 631.529C231.26 637.405 229.629 643.582 225.352 648.512C217.864 657.145 203.286 663.518 206.248 677.162C208.423 687.176 224.787 683.973 231.158 681.241C232.988 680.456 234.768 679.523 236.394 678.367C249.926 668.741 248.139 648.634 257.087 635.612C260.772 630.249 269.142 623.298 274.99 629.987C287.779 644.617 271.306 662.501 266.34 676.162C263.099 685.079 265.077 696.645 255.96 702.352C254.134 703.495 252.159 704.365 250.107 705.009C243.209 707.17 235.916 707.551 229.052 705.066C223.161 702.933 217.686 698.293 211.056 698.841" stroke="#F7F7FF" stroke-width="6" stroke-miterlimit="1.5" stroke-linecap="round" stroke-linejoin="round"/>
<path d="M607.634 573.679C604.127 591.504 618.332 602.206 618.574 619.1C618.867 639.548 596.846 664.799 585.426 680.689" stroke="#F7F7FF" stroke-width="6" stroke-miterlimit="1.5" stroke-linecap="round" stroke-linejoin="round"/>
<path d="M569.491 667.551C559.883 680.021 551.031 676.302 539.597 686.444C534.036 691.377 524.2 700.685 525.84 708.781C527.36 716.294 536.48 724.291 542.687 723.207C555.455 720.975 576.212 699.526 588.017 706.633C596.174 711.544 600.864 720.321 609.081 725.034C617.656 729.952 626.768 727.62 635.812 730.381C643.337 732.679 648.697 738.604 655.956 741.249C667.335 745.396 683.078 739.841 691.303 750.281C699.95 761.258 697.553 773.467 698.852 786.337C699.766 795.389 702.918 803.736 705.373 812.417" stroke="#F7F7FF" stroke-width="6" stroke-miterlimit="1.5" stroke-linecap="round" stroke-linejoin="round"/>
<path d="M156.241 660.773C146.633 673.243 131.447 677.439 120.012 687.582C114.451 692.514 109.114 697.766 110.753 705.863C112.274 713.375 121.574 714.796 127.78 713.711C140.549 711.48 158.695 699.526 170.501 706.633C178.657 711.543 183.348 720.32 191.565 725.033C200.139 729.951 209.251 727.62 218.295 730.381C225.821 732.679 231.18 738.603 238.439 741.249C249.818 745.395 265.56 739.84 273.784 750.28C282.432 761.257 280.035 773.467 281.335 786.336C282.249 795.388 285.401 803.736 287.856 812.416" stroke="#F7F7FF" stroke-width="6" stroke-miterlimit="1.5" stroke-linecap="round" stroke-linejoin="round"/>
<path d="M534.159 369.582C534.159 379.772 525.813 388.864 532.708 422.045" stroke="#F7F7FF" stroke-width="6" stroke-miterlimit="1.5" stroke-linecap="round" stroke-linejoin="round"/>
<path d="M515.95 392.598C502.289 408.237 472.843 427.735 455.465 410.811C435.8 391.66 428.649 404.594 425.781 419.97" stroke="#F7F7FF" stroke-width="6" stroke-miterlimit="1.5" stroke-linecap="round" stroke-linejoin="round"/>
<path d="M433.838 386.879C428.663 402.076 425.434 449.933 398.678 447.598" stroke="#F7F7FF" stroke-width="6" stroke-miterlimit="1.5" stroke-linecap="round" stroke-linejoin="round"/>
<path d="M426.692 363.224C418.026 369.641 410.572 376.986 405.74 387.435C400.574 398.606 399.453 411.001 389.045 418.065C374.377 428.019 361.961 415.601 347.093 415.144C325.177 414.47 300.925 444.603 252.269 415.063" stroke="#F7F7FF" stroke-width="6" stroke-miterlimit="1.5" stroke-linecap="round" stroke-linejoin="round"/>
<path d="M439.837 443.584C458.348 439.513 477.991 434.306 496.963 438.077C512.457 441.156 525.948 450.202 541.125 454.246C565.493 460.74 579.683 455.605 595.781 479.444" stroke="#F7F7FF" stroke-width="6" stroke-miterlimit="1.5" stroke-linecap="round" stroke-linejoin="round"/>
<path d="M631.312 448.297C622.073 461.284 610.682 476.759 612.938 493.723" stroke="#F7F7FF" stroke-width="6" stroke-miterlimit="1.5" stroke-linecap="round" stroke-linejoin="round"/>
<path d="M657.823 451.846C650.267 462.109 637.439 472.836 635.202 485.993C633.918 493.543 637.147 500.932 636.79 508.55C636.602 512.575 637.052 531.038 641.604 533.177C652.366 538.235 667.276 516.197 679.364 515.567" stroke="#F7F7FF" stroke-width="6" stroke-miterlimit="1.5" stroke-linecap="round" stroke-linejoin="round"/>
<path d="M268.657 454.517C311.108 459.798 308.263 441.111 366.203 436.249" stroke="#F7F7FF" stroke-width="6" stroke-miterlimit="1.5" stroke-linecap="round" stroke-linejoin="round"/>
<path d="M234.371 493.389C248.326 491.621 262.46 489.753 275.538 484.371" stroke="#F7F7FF" stroke-width="6" stroke-miterlimit="1.5" stroke-linecap="round" stroke-linejoin="round"/>
<path d="M652.147 493.389C666.102 491.621 680.236 489.753 693.314 484.371" stroke="#F7F7FF" stroke-width="6" stroke-miterlimit="1.5" stroke-linecap="round" stroke-linejoin="round"/>
<path d="M325.412 672.247C323.123 678.889 320.93 685.841 320.081 692.83" stroke="#F7F7FF" stroke-width="6" stroke-miterlimit="1.5" stroke-linecap="round" stroke-linejoin="round"/>
<path d="M561.705 435.356C577.983 442.32 597.192 409.973 664.572 407.801" stroke="#F7F7FF" stroke-width="6" stroke-miterlimit="1.5" stroke-linecap="round" stroke-linejoin="round"/>
<path d="M561.705 435.356C577.983 442.32 597.192 409.973 664.572 407.801" stroke="#F7F7FF" stroke-width="6" stroke-miterlimit="1.5" stroke-linecap="round" stroke-linejoin="round"/>
<path d="M561.705 435.69C580.549 442.083 618.919 388.984 703.231 430.557" stroke="#F7F7FF" stroke-width="6" stroke-miterlimit="1.5" stroke-linecap="round" stroke-linejoin="round"/>
<path d="M302.79 479.972C300.126 480.411 296.852 480.823 294.572 482.444C290.507 485.332 289.959 490.797 290.336 495.456C291.132 505.285 295.022 514.626 296.293 524.397C297.589 534.359 296.451 543.892 296.697 553.831C296.878 561.168 298.736 570.386 307.773 569.435C326.232 567.492 322.904 545.065 319.992 532.673C319.306 529.755 318.751 526.834 318.384 523.854C317.898 519.906 317.456 515.844 317.62 511.862C317.935 504.275 319.371 496.67 321.252 489.332C322.778 483.381 324.632 477.293 328.147 472.209C338.127 457.776 359.443 454.227 375.481 456.785C382.864 457.963 389.826 460.699 396.913 462.995" stroke="#F7F7FF" stroke-width="6" stroke-miterlimit="1.5" stroke-linecap="round" stroke-linejoin="round"/>
<path d="M554.331 604.591C560.029 634.962 515.459 656.249 494.942 634.64C481.9 620.904 479.963 600.492 486.983 583.432C490.32 575.324 504.879 560.714 497.155 552.793C493.988 549.545 488.359 550.793 484.531 551.764C473.832 554.478 445.209 573.773 445.061 549.594C445.046 547.113 445.406 544.588 446.248 542.248C449.707 532.636 460.676 528.896 469.795 526.716C489.739 521.949 520.294 522.675 531.981 543.305C537.622 553.262 530.774 559.798 524.567 567.311C518.861 574.217 512.407 582.856 509.143 591.234C506.015 599.261 505.967 609.091 513.21 614.845C519.338 619.714 527.949 615.054 531.126 609.039C534.302 603.024 533.625 595.884 536.738 589.895C539.837 583.932 545.166 579.44 548.455 573.57C552.205 566.876 553.58 559.071 556.739 552.068C559.4 546.172 563.429 537.639 560.918 531.071C558.186 523.929 546.474 525.982 540.217 521.081C532.528 515.058 525.212 508.135 516.331 503.825C497.171 494.529 471.432 495.062 451.465 501.691C441.018 505.16 433.125 514.597 422.308 516.695C408.489 519.375 397.157 509.268 384.656 511.467C375.789 513.026 371.909 526.121 377.961 532.505C389.811 545.005 406.989 527.39 419.599 534.64" stroke="#F7F7FF" stroke-width="6" stroke-miterlimit="1.5" stroke-linecap="round" stroke-linejoin="round"/>
<path d="M428.73 706.959C411.706 711.989 397.49 718.578 392.385 737.051C391.164 741.47 390.545 745.9 390.794 750.487C391.468 762.871 396.936 780.921 377.423 780.64C355.702 780.327 361.523 747 363.66 733.463C364.402 728.761 364.821 723.069 367.537 719.003C372.154 712.088 381.574 710.113 385.822 703.136C388.627 698.528 385.256 693.395 381.63 690.524C362.05 675.02 335.566 697.566 334.223 718.498C333.464 730.32 340.328 743.124 335.154 754.551C330.568 764.677 319.014 763.602 312.904 755.556C307.425 748.345 298.812 738.976 298.36 730.298C297.867 720.842 299.596 712.525 298.36 703.136C296.979 692.647 296.105 674.273 304.473 667.504" stroke="#F7F7FF" stroke-width="6" stroke-miterlimit="1.5" stroke-linecap="round" stroke-linejoin="round"/>
</g>
<g clip-path="url(#clip3_422_1426)">
<path d="M615.106 101.021C614.086 99.0215 612.558 95.7156 610.421 94.729C606.914 93.1103 603.181 95.8204 600.033 97.2383C594.206 99.862 587.634 101.544 582.103 97.3368C575.718 92.4811 573.813 83.2986 567.449 78.3038C559.496 72.0627 549.162 70.9074 540.323 66.7092C532.83 63.1503 526.641 57.2516 519.14 53.6471C505.792 47.2344 484.898 44.144 470.263 45.5644C457.31 46.8219 444.224 50.2898 431.941 54.7364C424.446 57.4495 417.582 61.5157 409.697 62.987C390.902 66.4934 368.678 54.979 352.975 70.3893C339.524 83.5883 338.979 105.082 345.738 121.95C349.68 131.786 359.11 141.143 353.313 152.191C348.576 161.219 338.111 164.069 329.808 168.038C314.658 175.278 301.553 187.806 302.944 207.013" stroke="#F7F7FF" stroke-width="6" stroke-miterlimit="1.5" stroke-linecap="round" stroke-linejoin="round"/>
<path d="M383.605 175.134C382.364 171.233 380.442 166.803 380.627 162.653C381.102 151.963 391.901 144.485 401.172 141.699C405.285 140.463 418.562 136.935 422.51 139.291C426.056 141.408 427.551 146.028 428.713 149.737C429.36 151.802 430.69 154.732 430.266 156.926C429.679 159.962 425.711 160.367 423.274 161.028C417.952 162.473 413.124 165.249 409.006 168.892C403.894 173.415 400.262 179.399 398.599 185.998C397.403 190.742 397.85 197.872 392.722 200.519C388.713 202.587 382.445 198.077 379.155 196.234C371.171 191.762 362.022 187.595 352.661 188.849C343.918 190.021 337.535 193.518 332.072 200.35C329.51 203.554 327.882 208.732 330.411 212.439C333.141 216.438 338.427 216.03 342.58 215.01C348.122 213.648 354.809 212.11 360.512 213.298C375.026 216.321 387.879 235.724 403.832 230.452C412.732 227.512 414.89 213.324 419.788 206.281C429.104 192.885 446.119 189.228 461.499 191.127" stroke="#F7F7FF" stroke-width="6" stroke-miterlimit="1.5" stroke-linecap="round" stroke-linejoin="round"/>
<path d="M637.819 163.545C632.006 154.256 629.697 139.835 620.848 132.985C605.407 121.034 578.804 136.199 577.674 154.35C576.831 167.91 581.822 179.702 585.858 192.26C587.624 197.76 590.208 207.453 587.379 213.035C583.369 220.947 575.955 222.155 568.682 225.899C560.744 229.986 553.625 235.671 545.748 239.954C530.156 248.434 511.931 255.676 495.06 246.182C484.741 240.375 477.075 230.613 467.219 224.054C458.728 218.404 444.102 214.191 437.947 225.336C429.069 241.414 448.859 244.089 457.079 249.985C464.69 255.444 469.264 263.86 476.382 269.791C484.233 276.333 510.033 279.576 497.764 296.482C495.022 300.261 491.806 303.387 489.288 307.399C486.164 312.375 482.484 317.902 477.166 320.758C469.659 324.789 466.789 320.208 464.983 312.779C461.061 296.654 463.601 280.545 447.265 270.429C432.748 261.44 416.355 265.939 400.725 262.608C387.303 259.747 377.287 250.237 364.441 246.441" stroke="#F7F7FF" stroke-width="6" stroke-miterlimit="1.5" stroke-linecap="round" stroke-linejoin="round"/>
<path d="M638.692 164.979C639.808 166.491 641.106 167.974 642.578 169.152C652.129 176.799 659.544 163.447 662.644 156.53C663.336 154.988 663.895 153.364 664.467 151.773C665.223 149.669 666.131 147.605 667.18 145.632C668.645 142.88 670.29 140.011 672.357 137.66C678.046 131.191 687.079 129.643 692.907 136.723C695.805 140.244 697.3 144.949 697.976 149.402C699.37 158.604 697.442 171.281 690.636 178.13C686.665 182.129 681.284 184.268 676.532 187.144C670.329 190.901 664.642 195.413 659.818 200.848C656.365 204.737 653.374 209.23 651.312 214.01C648.777 219.886 647.145 226.063 642.869 230.993C635.381 239.626 620.803 245.999 623.765 259.643C625.94 269.657 642.303 266.453 648.675 263.722C650.505 262.937 652.285 262.004 653.91 260.847C667.442 251.222 665.656 231.115 674.604 218.093C678.289 212.73 686.657 205.779 692.506 212.468C705.295 227.098 688.824 244.982 683.855 258.643C680.615 267.56 682.594 279.126 673.477 284.833C671.651 285.976 669.676 286.846 667.623 287.49C660.726 289.651 653.432 290.032 646.569 287.547C640.678 285.413 635.203 280.774 628.572 281.322" stroke="#F7F7FF" stroke-width="6" stroke-miterlimit="1.5" stroke-linecap="round" stroke-linejoin="round"/>
<path d="M221.175 164.979C222.292 166.491 223.59 167.974 225.061 169.152C234.613 176.799 242.027 163.447 245.127 156.53C245.819 154.988 246.379 153.364 246.95 151.773C247.707 149.669 248.615 147.605 249.664 145.632C251.129 142.88 252.774 140.011 254.84 137.66C260.53 131.191 269.564 129.643 275.39 136.723C278.287 140.244 279.785 144.949 280.46 149.402C281.854 158.604 279.924 171.281 273.121 178.13C269.149 182.129 263.766 184.268 259.016 187.144C252.812 190.901 247.125 195.413 242.302 200.848C238.849 204.737 235.857 209.23 233.795 214.01C231.26 219.886 229.629 226.063 225.352 230.993C217.864 239.626 203.286 245.999 206.248 259.643C208.423 269.657 224.787 266.453 231.158 263.722C232.988 262.937 234.768 262.004 236.394 260.847C249.926 251.222 248.139 231.115 257.087 218.093C260.772 212.73 269.142 205.779 274.99 212.468C287.779 227.098 271.306 244.982 266.34 258.643C263.099 267.56 265.077 279.126 255.96 284.833C254.134 285.976 252.159 286.846 250.107 287.49C243.209 289.651 235.916 290.032 229.052 287.547C223.161 285.413 217.686 280.774 211.056 281.322" stroke="#F7F7FF" stroke-width="6" stroke-miterlimit="1.5" stroke-linecap="round" stroke-linejoin="round"/>
<path d="M607.634 156.16C604.127 173.985 618.332 184.687 618.574 201.581C618.867 222.028 596.846 247.28 585.426 263.17" stroke="#F7F7FF" stroke-width="6" stroke-miterlimit="1.5" stroke-linecap="round" stroke-linejoin="round"/>
<path d="M569.491 250.032C559.883 262.502 551.031 258.783 539.597 268.925C534.036 273.858 524.2 283.166 525.84 291.262C527.36 298.775 536.48 306.772 542.687 305.688C555.455 303.456 576.212 282.007 588.017 289.114C596.174 294.025 600.864 302.802 609.081 307.515C617.656 312.433 626.768 310.101 635.812 312.862C643.337 315.16 648.697 321.085 655.956 323.73C667.335 327.877 683.078 322.322 691.303 332.762C699.95 343.739 697.553 355.948 698.852 368.817C699.766 377.87 702.918 386.217 705.373 394.897" stroke="#F7F7FF" stroke-width="6" stroke-miterlimit="1.5" stroke-linecap="round" stroke-linejoin="round"/>
<path d="M156.241 243.254C146.633 255.724 131.447 259.92 120.012 270.063C114.451 274.995 109.114 280.247 110.753 288.344C112.274 295.856 121.574 297.277 127.78 296.192C140.549 293.96 158.695 282.007 170.501 289.114C178.657 294.024 183.348 302.801 191.565 307.514C200.139 312.432 209.251 310.101 218.295 312.862C225.821 315.16 231.18 321.084 238.439 323.73C249.818 327.876 265.56 322.321 273.784 332.761C282.432 343.738 280.035 355.948 281.335 368.817C282.249 377.869 285.401 386.217 287.856 394.897" stroke="#F7F7FF" stroke-width="6" stroke-miterlimit="1.5" stroke-linecap="round" stroke-linejoin="round"/>
<path d="M605.621 372.328C626.371 384.183 640.841 393.445 665.716 391.637C680.383 390.571 683.059 368.014 672.547 359.73C665.023 353.801 653.536 355.396 644.62 355.358C632.138 355.306 618.391 353.474 606.952 348.228C595.976 343.194 588.57 333.107 578.685 326.474C576.052 324.708 570.125 320.754 567.75 324.195C559.042 336.814 572.745 351.117 578.255 361.969C582.898 371.113 584.794 382.146 586.287 392.225" stroke="#F7F7FF" stroke-width="6" stroke-miterlimit="1.5" stroke-linecap="round" stroke-linejoin="round"/>
<path d="M188.095 372.328C208.844 384.183 223.314 393.445 248.189 391.637C262.855 390.571 265.533 368.014 255.02 359.73C247.496 353.801 236.009 355.396 227.093 355.358C214.611 355.306 200.865 353.474 189.425 348.228C178.45 343.194 171.043 333.107 161.158 326.474C158.526 324.708 152.598 320.754 150.224 324.195C141.516 336.814 155.219 351.117 160.729 361.969C165.372 371.113 167.268 382.146 168.761 392.225" stroke="#F7F7FF" stroke-width="6" stroke-miterlimit="1.5" stroke-linecap="round" stroke-linejoin="round"/>
<path d="M417.287 330.638C424.184 321.299 432.342 321.352 439.907 330.296C449.067 341.122 451.24 357 467.994 357.868C492.994 359.164 496.236 326.048 517.825 316.111" stroke="#F7F7FF" stroke-width="6" stroke-miterlimit="1.5" stroke-linecap="round" stroke-linejoin="round"/>
<path d="M441.508 366.027C449.668 379.134 464.606 388.727 480.505 384.477C493.344 381.044 506.236 370.019 515.26 360.633C520.584 355.096 530.295 336.64 539.48 339.551C546.174 341.672 549.757 349.158 551.011 355.57C553.644 369.037 548.598 382.529 555.533 395.273" stroke="#F7F7FF" stroke-width="6" stroke-miterlimit="1.5" stroke-linecap="round" stroke-linejoin="round"/>
<path d="M534.159 369.583C534.159 379.773 525.813 388.865 532.708 422.046" stroke="#F7F7FF" stroke-width="6" stroke-miterlimit="1.5" stroke-linecap="round" stroke-linejoin="round"/>
<path d="M534.159 -47.937C534.159 -37.747 525.813 -28.6551 532.708 4.52606" stroke="#F7F7FF" stroke-width="6" stroke-miterlimit="1.5" stroke-linecap="round" stroke-linejoin="round"/>
<path d="M515.945 392.599C502.283 408.239 472.838 427.737 455.46 410.812C425.072 381.219 424.566 428.238 423.569 442.494" stroke="#F7F7FF" stroke-width="6" stroke-miterlimit="1.5" stroke-linecap="round" stroke-linejoin="round"/>
<path d="M515.945 392.599C502.283 408.239 472.838 427.737 455.46 410.812C425.072 381.219 424.566 428.238 423.569 442.494" stroke="#F7F7FF" stroke-width="6" stroke-miterlimit="1.5" stroke-linecap="round" stroke-linejoin="round"/>
<path d="M515.95 -24.9214C502.289 -9.28174 472.843 10.216 455.465 -6.70816C435.8 -25.8594 428.649 -12.9253 425.781 2.45118" stroke="#F7F7FF" stroke-width="6" stroke-miterlimit="1.5" stroke-linecap="round" stroke-linejoin="round"/>
<path d="M433.838 -30.6401C428.663 -15.4433 425.434 32.4144 398.678 30.0789" stroke="#F7F7FF" stroke-width="6" stroke-miterlimit="1.5" stroke-linecap="round" stroke-linejoin="round"/>
<path d="M426.692 -54.2949C418.026 -47.8781 410.572 -40.5332 405.74 -30.0843C400.574 -18.9131 399.453 -6.51807 389.045 0.545662C374.377 10.5001 361.961 -1.91833 347.093 -2.37531C325.177 -3.04877 300.925 27.0844 252.269 -2.45643" stroke="#F7F7FF" stroke-width="6" stroke-miterlimit="1.5" stroke-linecap="round" stroke-linejoin="round"/>
<path d="M426.689 363.497C418.023 369.914 410.569 377.259 405.737 387.708C400.57 398.879 399.45 411.274 389.041 418.338C374.374 428.292 361.958 415.874 347.089 415.417C322.919 412.166 310.2 444.741 253.039 415.973" stroke="#F7F7FF" stroke-width="6" stroke-miterlimit="1.5" stroke-linecap="round" stroke-linejoin="round"/>
<path d="M312.222 395.645C305.787 364.36 329.709 358.391 366.199 390.453" stroke="#F7F7FF" stroke-width="6" stroke-miterlimit="1.5" stroke-linecap="round" stroke-linejoin="round"/>
<path d="M439.837 26.0652C458.348 21.9944 477.991 16.7874 496.963 20.5578C512.457 23.6366 525.948 32.683 541.125 36.7273C565.493 43.2209 579.683 38.0855 595.781 61.9249" stroke="#F7F7FF" stroke-width="6" stroke-miterlimit="1.5" stroke-linecap="round" stroke-linejoin="round"/>
<path d="M631.312 30.7778C622.073 43.7652 610.682 59.2398 612.938 76.204" stroke="#F7F7FF" stroke-width="6" stroke-miterlimit="1.5" stroke-linecap="round" stroke-linejoin="round"/>
<path d="M657.823 34.3271C650.267 44.5898 637.439 55.3171 635.202 68.4745C633.918 76.0236 637.147 83.4133 636.79 91.031C636.602 95.0555 637.052 113.519 641.604 115.658C652.366 120.716 667.276 98.6779 679.364 98.0478" stroke="#F7F7FF" stroke-width="6" stroke-miterlimit="1.5" stroke-linecap="round" stroke-linejoin="round"/>
<path d="M268.657 36.9976C311.108 42.2787 308.263 23.5917 366.203 18.7297" stroke="#F7F7FF" stroke-width="6" stroke-miterlimit="1.5" stroke-linecap="round" stroke-linejoin="round"/>
<path d="M234.371 75.87C248.326 74.1018 262.46 72.2338 275.538 66.8516" stroke="#F7F7FF" stroke-width="6" stroke-miterlimit="1.5" stroke-linecap="round" stroke-linejoin="round"/>
<path d="M652.147 75.87C666.102 74.1018 680.236 72.2338 693.314 66.8516" stroke="#F7F7FF" stroke-width="6" stroke-miterlimit="1.5" stroke-linecap="round" stroke-linejoin="round"/>
<path d="M325.412 254.728C323.123 261.37 320.93 268.322 320.081 275.311" stroke="#F7F7FF" stroke-width="6" stroke-miterlimit="1.5" stroke-linecap="round" stroke-linejoin="round"/>
<path d="M561.705 17.8374C577.983 24.801 597.192 -7.54595 664.572 -9.71826" stroke="#F7F7FF" stroke-width="6" stroke-miterlimit="1.5" stroke-linecap="round" stroke-linejoin="round"/>
<path d="M561.705 17.8374C577.983 24.801 597.192 -7.54595 664.572 -9.71826" stroke="#F7F7FF" stroke-width="6" stroke-miterlimit="1.5" stroke-linecap="round" stroke-linejoin="round"/>
<path d="M561.705 435.61C577.983 442.573 618.57 389.637 698.271 427.31" stroke="#F7F7FF" stroke-width="6" stroke-miterlimit="1.5" stroke-linecap="round" stroke-linejoin="round"/>
<path d="M561.705 18.171C580.549 24.5644 618.919 -28.5352 703.231 13.0377" stroke="#F7F7FF" stroke-width="6" stroke-miterlimit="1.5" stroke-linecap="round" stroke-linejoin="round"/>
<path d="M302.79 62.453C300.126 62.8918 296.852 63.3035 294.572 64.9247C290.507 67.8131 289.959 73.278 290.336 77.9371C291.132 87.7656 295.022 97.1072 296.293 106.878C297.589 116.84 296.451 126.373 296.697 136.312C296.878 143.649 298.736 152.867 307.773 151.916C326.232 149.973 322.904 127.546 319.992 115.154C319.306 112.236 318.751 109.315 318.384 106.335C317.898 102.387 317.456 98.3247 317.62 94.3428C317.935 86.7564 319.371 79.1505 321.252 71.8134C322.778 65.862 324.632 59.7738 328.147 54.6896C338.127 40.2573 359.443 36.7083 375.481 39.2663C382.864 40.4435 389.826 43.1799 396.913 45.4758" stroke="#F7F7FF" stroke-width="6" stroke-miterlimit="1.5" stroke-linecap="round" stroke-linejoin="round"/>
<path d="M554.331 187.071C560.029 217.443 515.459 238.73 494.942 217.121C481.9 203.385 479.963 182.973 486.983 165.913C490.32 157.805 504.879 143.195 497.155 135.274C493.988 132.026 488.359 133.274 484.531 134.245C473.832 136.959 445.209 156.254 445.061 132.075C445.046 129.594 445.406 127.069 446.248 124.729C449.707 115.117 460.676 111.377 469.795 109.197C489.739 104.43 520.294 105.156 531.981 125.786C537.622 135.743 530.774 142.279 524.567 149.792C518.861 156.698 512.407 165.337 509.143 173.715C506.015 181.742 505.967 191.572 513.21 197.326C519.338 202.194 527.949 197.535 531.126 191.52C534.302 185.505 533.625 178.365 536.738 172.376C539.837 166.413 545.166 161.921 548.455 156.051C552.205 149.357 553.58 141.552 556.739 134.549C559.4 128.652 563.429 120.12 560.918 113.552C558.186 106.41 546.474 108.463 540.217 103.562C532.528 97.5389 525.212 90.6156 516.331 86.3064C497.171 77.0103 471.432 77.5426 451.465 84.172C441.018 87.6412 433.125 97.078 422.308 99.176C408.489 101.856 397.157 91.7487 384.656 93.9478C375.789 95.5072 371.909 108.602 377.961 114.986C389.811 127.486 406.989 109.871 419.599 117.121" stroke="#F7F7FF" stroke-width="6" stroke-miterlimit="1.5" stroke-linecap="round" stroke-linejoin="round"/>
<path d="M428.73 289.44C411.706 294.47 397.49 301.059 392.385 319.532C391.164 323.951 390.545 328.381 390.794 332.968C391.468 345.352 396.936 363.402 377.423 363.121C355.702 362.808 361.523 329.481 363.66 315.944C364.402 311.242 364.821 305.55 367.537 301.484C372.154 294.568 381.574 292.594 385.822 285.617C388.627 281.009 385.256 275.876 381.63 273.005C362.05 257.501 335.566 280.047 334.223 300.979C333.464 312.801 340.328 325.605 335.154 337.032C330.568 347.158 319.014 346.082 312.904 338.037C307.425 330.826 298.812 321.457 298.36 312.779C297.867 303.323 299.596 295.006 298.36 285.617C296.979 275.127 296.105 256.754 304.473 249.985" stroke="#F7F7FF" stroke-width="6" stroke-miterlimit="1.5" stroke-linecap="round" stroke-linejoin="round"/>
</g>
</g>
</g>
<defs>
<radialGradient id="paint0_radial_422_1426" cx="0" cy="0" r="1" gradientUnits="userSpaceOnUse" gradientTransform="translate(680) rotate(135) scale(642.937)">
<stop stop-color="white"/>
<stop offset="1" stop-color="white" stop-opacity="0"/>
</radialGradient>
<clipPath id="clip0_422_1426">
<rect width="417.52" height="417.52" fill="white" transform="translate(-155.044 417.519)"/>
</clipPath>
<clipPath id="clip1_422_1426">
<rect width="417.52" height="417.52" fill="white" transform="translate(-155.044)"/>
</clipPath>
<clipPath id="clip2_422_1426">
<rect width="417.52" height="417.52" fill="white" transform="translate(262.474 417.519)"/>
</clipPath>
<clipPath id="clip3_422_1426">
<rect width="417.52" height="417.52" fill="white" transform="translate(262.474)"/>
</clipPath>
</defs>
</svg>
