<svg width="680" height="680" viewBox="0 0 680 680" fill="none" xmlns="http://www.w3.org/2000/svg">
<g opacity="0.1">
<mask id="mask0_422_1426" style="mask-type:alpha" maskUnits="userSpaceOnUse" x="0" y="0" width="680" height="680">
<rect x="680" y="680" width="680" height="680" transform="rotate(180 680 680)" fill="url(#paint0_radial_422_1426)"/>
</mask>
<g mask="url(#mask0_422_1426)">
<g clip-path="url(#clip0_422_1426)">
<path d="M482.412 161.459C483.432 163.459 484.96 166.765 487.097 167.752C490.603 169.371 494.337 166.661 497.485 165.243C503.312 162.619 509.883 160.937 515.415 165.144C521.8 170 523.704 179.182 530.069 184.177C538.021 190.418 548.356 191.574 557.194 195.772C564.688 199.331 570.876 205.229 578.377 208.834C591.725 215.247 612.619 218.337 627.254 216.917C640.207 215.659 653.293 212.191 665.576 207.745C673.072 205.031 679.936 200.965 687.821 199.494C706.615 195.988 728.839 207.502 744.543 192.092C757.994 178.893 758.539 157.399 751.78 140.53C747.838 130.695 738.408 121.338 744.205 110.289C748.942 101.262 759.406 98.4115 767.71 94.4429C782.859 87.2027 795.965 74.6746 794.573 55.4679" stroke="#F7F7FF" stroke-width="6" stroke-miterlimit="1.5" stroke-linecap="round" stroke-linejoin="round"/>
<path d="M713.913 87.3471C715.154 91.2484 717.075 95.6779 716.891 99.8281C716.416 110.518 705.616 117.996 696.345 120.782C692.232 122.018 678.956 125.546 675.008 123.19C671.462 121.073 669.966 116.453 668.805 112.744C668.158 110.679 666.827 107.749 667.251 105.555C667.838 102.519 671.807 102.114 674.243 101.453C679.566 100.008 684.394 97.2319 688.512 93.5891C693.624 89.0656 697.256 83.0822 698.919 76.4829C700.114 71.7394 699.668 64.609 704.796 61.9623C708.804 59.8935 715.072 64.4036 718.363 66.2469C726.347 70.719 735.496 74.8862 744.857 73.632C753.599 72.46 759.983 68.9629 765.446 62.1314C768.008 58.927 769.636 53.7489 767.106 50.0421C764.377 46.0431 759.09 46.4506 754.938 47.471C749.395 48.8334 742.709 50.3707 737.005 49.1829C722.492 46.1604 709.639 26.7575 693.686 32.0286C684.786 34.9692 682.627 49.1574 677.73 56.1997C668.413 69.5958 651.399 73.2533 636.019 71.354" stroke="#F7F7FF" stroke-width="6" stroke-miterlimit="1.5" stroke-linecap="round" stroke-linejoin="round"/>
<path d="M459.698 98.9363C465.512 108.225 467.821 122.646 476.67 129.496C492.11 141.447 518.713 126.282 519.843 108.131C520.687 94.5711 515.695 82.7791 511.66 70.2205C509.893 64.7213 507.309 55.0277 510.139 49.4455C514.148 41.5339 521.563 40.3264 528.836 36.5821C536.774 32.4954 543.893 26.8101 551.769 22.5267C567.362 14.0473 585.586 6.80543 602.458 16.299C612.776 22.1059 620.442 31.8675 630.299 38.4271C638.789 44.077 653.415 48.2902 659.57 37.1445C668.448 21.0667 648.658 18.3916 640.438 12.4958C632.827 7.03672 628.254 -1.3788 621.135 -7.31051C613.285 -13.8518 587.484 -17.0947 599.753 -34.0013C602.496 -37.7803 605.712 -40.9059 608.23 -44.9182C611.354 -49.8942 615.034 -55.4209 620.352 -58.2768C627.859 -62.3079 630.728 -57.7269 632.535 -50.298C636.457 -34.1729 633.917 -18.0637 650.252 -7.94807C664.769 1.04072 681.162 -3.45806 696.792 -0.12709C710.214 2.73376 720.23 12.244 733.076 16.0401" stroke="#F7F7FF" stroke-width="6" stroke-miterlimit="1.5" stroke-linecap="round" stroke-linejoin="round"/>
<path d="M458.826 97.5019C457.709 95.9901 456.411 94.5066 454.94 93.3292C445.388 85.6815 437.974 99.0338 434.873 105.951C434.182 107.493 433.622 109.117 433.051 110.708C432.294 112.812 431.386 114.876 430.337 116.849C428.872 119.601 427.227 122.47 425.161 124.821C419.471 131.29 410.439 132.838 404.61 125.758C401.713 122.237 400.218 117.532 399.542 113.079C398.147 103.877 400.076 91.1995 406.882 84.3509C410.852 80.3523 416.234 78.2129 420.985 75.3366C427.189 71.5798 432.876 67.0676 437.7 61.6332C441.152 57.744 444.144 53.2507 446.206 48.4713C448.741 42.5951 450.372 36.4183 454.648 31.4879C462.137 22.8552 476.715 16.4818 473.752 2.83805C471.578 -7.17575 455.215 -3.97254 448.843 -1.2407C447.012 -0.456182 445.233 0.476969 443.607 1.6335C430.075 11.259 431.861 31.3659 422.914 44.3884C419.229 49.7506 410.861 56.7023 405.011 50.0128C392.223 35.3833 408.694 17.4988 413.662 3.83759C416.902 -5.07855 414.923 -16.6451 424.041 -22.3522C425.867 -23.4954 427.842 -24.365 429.894 -25.0089C436.792 -27.1704 444.085 -27.5511 450.948 -25.0656C456.84 -22.9325 462.315 -18.2931 468.945 -18.8413" stroke="#F7F7FF" stroke-width="6" stroke-miterlimit="1.5" stroke-linecap="round" stroke-linejoin="round"/>
<path d="M489.884 106.321C493.391 88.4961 479.186 77.7942 478.944 60.8997C478.65 40.4525 500.671 15.2013 512.092 -0.689115" stroke="#F7F7FF" stroke-width="6" stroke-miterlimit="1.5" stroke-linecap="round" stroke-linejoin="round"/>
<path d="M528.026 12.4487C537.634 -0.0213409 546.486 3.69835 557.921 -6.44405C563.482 -11.3766 573.318 -20.6848 571.678 -28.7814C570.157 -36.2938 561.038 -44.2914 554.831 -43.2067C542.062 -40.975 521.306 -19.5262 509.5 -26.6332C501.344 -31.5437 496.653 -40.3208 488.436 -45.0337C479.862 -49.9517 470.75 -47.6199 461.706 -50.3813C454.18 -52.679 448.821 -58.6036 441.561 -61.249C430.183 -65.3958 414.44 -59.8407 406.215 -70.2808C397.568 -81.2578 399.964 -93.4673 398.666 -106.337C397.752 -115.389 394.599 -123.736 392.144 -132.417" stroke="#F7F7FF" stroke-width="6" stroke-miterlimit="1.5" stroke-linecap="round" stroke-linejoin="round"/>
<path d="M563.358 310.418C563.358 300.228 571.705 291.136 564.809 257.955" stroke="#F7F7FF" stroke-width="6" stroke-miterlimit="1.5" stroke-linecap="round" stroke-linejoin="round"/>
<path d="M581.567 287.402C595.229 271.763 624.674 252.265 642.052 269.189C661.718 288.34 668.869 275.406 671.737 260.03" stroke="#F7F7FF" stroke-width="6" stroke-miterlimit="1.5" stroke-linecap="round" stroke-linejoin="round"/>
<path d="M663.68 293.121C668.854 277.924 672.083 230.067 698.84 232.402" stroke="#F7F7FF" stroke-width="6" stroke-miterlimit="1.5" stroke-linecap="round" stroke-linejoin="round"/>
<path d="M670.825 316.776C679.492 310.359 686.946 303.014 691.778 292.565C696.944 281.394 698.065 268.999 708.473 261.935C723.14 251.981 735.556 264.399 750.425 264.856C772.341 265.53 796.592 235.397 845.249 264.937" stroke="#F7F7FF" stroke-width="6" stroke-miterlimit="1.5" stroke-linecap="round" stroke-linejoin="round"/>
<path d="M657.681 236.416C639.17 240.487 619.527 245.694 600.555 241.923C585.06 238.844 571.569 229.798 556.392 225.754C532.024 219.26 517.834 224.395 501.737 200.556" stroke="#F7F7FF" stroke-width="6" stroke-miterlimit="1.5" stroke-linecap="round" stroke-linejoin="round"/>
<path d="M466.206 231.703C475.445 218.716 486.836 203.241 484.58 186.277" stroke="#F7F7FF" stroke-width="6" stroke-miterlimit="1.5" stroke-linecap="round" stroke-linejoin="round"/>
<path d="M439.694 228.154C447.251 217.891 460.079 207.164 462.316 194.007C463.599 186.457 460.371 179.068 460.728 171.45C460.916 167.425 460.465 148.962 455.914 146.823C445.152 141.765 430.241 163.803 418.153 164.433" stroke="#F7F7FF" stroke-width="6" stroke-miterlimit="1.5" stroke-linecap="round" stroke-linejoin="round"/>
<path d="M445.371 186.611C431.415 188.379 417.281 190.247 404.203 195.629" stroke="#F7F7FF" stroke-width="6" stroke-miterlimit="1.5" stroke-linecap="round" stroke-linejoin="round"/>
<path d="M535.813 244.644C519.535 237.68 500.325 270.027 432.945 272.199" stroke="#F7F7FF" stroke-width="6" stroke-miterlimit="1.5" stroke-linecap="round" stroke-linejoin="round"/>
<path d="M535.813 244.644C519.535 237.68 500.325 270.027 432.945 272.199" stroke="#F7F7FF" stroke-width="6" stroke-miterlimit="1.5" stroke-linecap="round" stroke-linejoin="round"/>
<path d="M535.813 244.31C516.969 237.917 478.599 291.016 394.286 249.443" stroke="#F7F7FF" stroke-width="6" stroke-miterlimit="1.5" stroke-linecap="round" stroke-linejoin="round"/>
<path d="M543.187 75.4095C537.489 45.0382 582.058 23.751 602.576 45.3601C615.617 59.0961 617.555 79.5078 610.534 96.5677C607.198 104.676 592.638 119.286 600.362 127.207C603.53 130.455 609.159 129.207 612.987 128.236C623.686 125.522 652.309 106.227 652.457 130.406C652.472 132.887 652.112 135.412 651.269 137.752C647.811 147.364 636.841 151.104 627.722 153.284C607.778 158.051 577.223 157.325 565.536 136.695C559.896 126.738 566.743 120.202 572.95 112.689C578.656 105.783 585.111 97.1443 588.375 88.7664C591.502 80.7391 591.55 70.9094 584.307 65.1552C578.18 60.2865 569.568 64.946 566.391 70.9608C563.215 76.9756 563.893 84.116 560.78 90.1049C557.681 96.0675 552.351 100.56 549.062 106.43C545.313 113.124 543.938 120.929 540.778 127.932C538.117 133.828 534.088 142.361 536.6 148.929C539.332 156.071 551.044 154.018 557.301 158.919C564.989 164.942 572.306 171.865 581.186 176.175C600.347 185.471 626.086 184.938 646.053 178.309C656.5 174.84 664.392 165.403 675.21 163.305C689.028 160.625 700.361 170.732 712.862 168.533C721.729 166.974 725.609 153.879 719.556 147.495C707.707 134.995 690.528 152.61 677.918 145.36" stroke="#F7F7FF" stroke-width="6" stroke-miterlimit="1.5" stroke-linecap="round" stroke-linejoin="round"/>
<path d="M668.788 -26.9591C685.812 -31.989 700.028 -38.5783 705.133 -57.051C706.354 -61.4705 706.973 -65.8999 706.723 -70.4872C706.05 -82.8713 700.581 -100.921 720.095 -100.64C741.816 -100.327 735.994 -67.0001 733.858 -53.4629C733.116 -48.7607 732.697 -43.0687 729.981 -39.0029C725.363 -32.0875 715.943 -30.1126 711.696 -23.1363C708.891 -18.5281 712.261 -13.3952 715.887 -10.5239C735.468 4.9799 761.951 -17.5657 763.295 -38.4981C764.053 -50.3202 757.19 -63.1243 762.364 -74.5514C766.949 -84.6767 778.504 -83.6015 784.614 -75.5563C790.092 -68.3449 798.706 -58.9762 799.158 -50.2976C799.651 -40.8421 797.922 -32.5251 799.158 -23.1363C800.539 -12.6465 801.412 5.72684 793.044 12.4961" stroke="#F7F7FF" stroke-width="6" stroke-miterlimit="1.5" stroke-linecap="round" stroke-linejoin="round"/>
</g>
<g clip-path="url(#clip1_422_1426)">
<path d="M482.412 578.979C483.432 580.978 484.96 584.284 487.097 585.271C490.603 586.89 494.337 584.18 497.485 582.762C503.312 580.138 509.883 578.456 515.415 582.663C521.8 587.519 523.704 596.701 530.069 601.696C538.021 607.937 548.356 609.093 557.194 613.291C564.688 616.85 570.876 622.748 578.377 626.353C591.725 632.766 612.619 635.856 627.254 634.436C640.207 633.178 653.293 629.71 665.576 625.264C673.072 622.551 679.936 618.484 687.821 617.013C706.615 613.507 728.839 625.021 744.543 609.611C757.994 596.412 758.539 574.918 751.78 558.05C747.838 548.214 738.408 538.857 744.205 527.809C748.942 518.781 759.406 515.931 767.71 511.962C782.859 504.722 795.965 492.194 794.573 472.987" stroke="#F7F7FF" stroke-width="6" stroke-miterlimit="1.5" stroke-linecap="round" stroke-linejoin="round"/>
<path d="M713.913 504.866C715.154 508.767 717.075 513.197 716.891 517.347C716.416 528.037 705.616 535.515 696.345 538.301C692.232 539.537 678.956 543.065 675.008 540.709C671.462 538.592 669.966 533.972 668.805 530.263C668.158 528.198 666.827 525.268 667.251 523.074C667.838 520.038 671.807 519.633 674.243 518.972C679.566 517.527 684.394 514.751 688.512 511.108C693.624 506.585 697.256 500.601 698.919 494.002C700.114 489.258 699.668 482.128 704.796 479.481C708.804 477.413 715.072 481.923 718.363 483.766C726.347 488.238 735.496 492.405 744.857 491.151C753.599 489.979 759.983 486.482 765.446 479.65C768.008 476.446 769.636 471.268 767.106 467.561C764.377 463.562 759.09 463.97 754.938 464.99C749.395 466.352 742.709 467.89 737.005 466.702C722.492 463.679 709.639 444.276 693.686 449.548C684.786 452.488 682.627 466.676 677.73 473.719C668.413 487.115 651.399 490.772 636.019 488.873" stroke="#F7F7FF" stroke-width="6" stroke-miterlimit="1.5" stroke-linecap="round" stroke-linejoin="round"/>
<path d="M459.698 516.455C465.512 525.744 467.821 540.165 476.67 547.015C492.11 558.966 518.713 543.801 519.843 525.65C520.687 512.09 515.695 500.298 511.66 487.74C509.893 482.24 507.309 472.547 510.139 466.965C514.148 459.053 521.563 457.845 528.836 454.101C536.774 450.014 543.893 444.329 551.769 440.046C567.362 431.566 585.586 424.324 602.458 433.818C612.776 439.625 620.442 449.387 630.299 455.946C638.789 461.596 653.415 465.809 659.57 454.664C668.448 438.586 648.658 435.911 640.438 430.015C632.827 424.556 628.254 416.14 621.135 410.209C613.285 403.667 587.484 400.424 599.753 383.518C602.496 379.739 605.712 376.613 608.23 372.601C611.354 367.625 615.034 362.098 620.352 359.242C627.859 355.211 630.728 359.792 632.535 367.221C636.457 383.346 633.917 399.455 650.252 409.571C664.769 418.56 681.162 414.061 696.792 417.392C710.214 420.253 720.23 429.763 733.076 433.559" stroke="#F7F7FF" stroke-width="6" stroke-miterlimit="1.5" stroke-linecap="round" stroke-linejoin="round"/>
<path d="M458.826 515.021C457.709 513.509 456.411 512.026 454.94 510.848C445.388 503.201 437.974 516.553 434.873 523.47C434.182 525.012 433.622 526.636 433.051 528.227C432.294 530.331 431.386 532.395 430.337 534.368C428.872 537.12 427.227 539.989 425.161 542.34C419.471 548.809 410.439 550.357 404.61 543.277C401.713 539.756 400.218 535.051 399.542 530.598C398.147 521.396 400.076 508.719 406.882 501.87C410.852 497.871 416.234 495.732 420.985 492.856C427.189 489.099 432.876 484.587 437.7 479.152C441.152 475.263 444.144 470.77 446.206 465.99C448.741 460.114 450.372 453.937 454.648 449.007C462.137 440.374 476.715 434.001 473.752 420.357C471.578 410.343 455.215 413.547 448.843 416.278C447.012 417.063 445.233 417.996 443.607 419.153C430.075 428.778 431.861 448.885 422.914 461.907C419.229 467.27 410.861 474.221 405.011 467.532C392.223 452.902 408.694 435.018 413.662 421.357C416.902 412.44 414.923 400.874 424.041 395.167C425.867 394.024 427.842 393.154 429.894 392.51C436.792 390.349 444.085 389.968 450.948 392.453C456.84 394.587 462.315 399.226 468.945 398.678" stroke="#F7F7FF" stroke-width="6" stroke-miterlimit="1.5" stroke-linecap="round" stroke-linejoin="round"/>
<path d="M489.884 523.84C493.391 506.015 479.186 495.313 478.944 478.419C478.65 457.972 500.671 432.72 512.092 416.83" stroke="#F7F7FF" stroke-width="6" stroke-miterlimit="1.5" stroke-linecap="round" stroke-linejoin="round"/>
<path d="M528.026 429.968C537.634 417.498 546.486 421.217 557.921 411.075C563.482 406.142 573.318 396.834 571.678 388.738C570.157 381.225 561.038 373.228 554.831 374.312C542.062 376.544 521.306 397.993 509.5 390.886C501.344 385.975 496.653 377.198 488.436 372.485C479.862 367.567 470.75 369.899 461.706 367.138C454.18 364.84 448.821 358.915 441.561 356.27C430.183 352.123 414.44 357.678 406.215 347.238C397.568 336.261 399.964 324.052 398.666 311.183C397.752 302.13 394.599 293.783 392.144 285.103" stroke="#F7F7FF" stroke-width="6" stroke-miterlimit="1.5" stroke-linecap="round" stroke-linejoin="round"/>
<path d="M491.896 307.672C471.147 295.817 456.677 286.555 431.802 288.363C417.135 289.429 414.459 311.986 424.971 320.27C432.495 326.199 443.982 324.604 452.898 324.642C465.38 324.694 479.126 326.526 490.566 331.772C501.541 336.806 508.948 346.893 518.833 353.526C521.465 355.292 527.393 359.246 529.768 355.805C538.475 343.186 524.772 328.883 519.262 318.031C514.62 308.887 512.723 297.854 511.231 287.775" stroke="#F7F7FF" stroke-width="6" stroke-miterlimit="1.5" stroke-linecap="round" stroke-linejoin="round"/>
<path d="M680.231 349.362C673.334 358.701 665.176 358.648 657.61 349.704C648.451 338.878 646.278 323 629.524 322.132C604.524 320.836 601.282 353.952 579.692 363.889" stroke="#F7F7FF" stroke-width="6" stroke-miterlimit="1.5" stroke-linecap="round" stroke-linejoin="round"/>
<path d="M656.01 313.973C647.85 300.866 632.911 291.273 617.013 295.523C604.173 298.956 591.282 309.981 582.257 319.367C576.934 324.904 567.222 343.36 558.037 340.449C551.344 338.328 547.76 330.842 546.506 324.43C543.873 310.963 548.92 297.471 541.985 284.727" stroke="#F7F7FF" stroke-width="6" stroke-miterlimit="1.5" stroke-linecap="round" stroke-linejoin="round"/>
<path d="M563.358 310.417C563.358 300.227 571.705 291.135 564.809 257.954" stroke="#F7F7FF" stroke-width="6" stroke-miterlimit="1.5" stroke-linecap="round" stroke-linejoin="round"/>
<path d="M563.358 727.937C563.358 717.747 571.705 708.655 564.809 675.474" stroke="#F7F7FF" stroke-width="6" stroke-miterlimit="1.5" stroke-linecap="round" stroke-linejoin="round"/>
<path d="M581.573 287.401C595.234 271.761 624.68 252.263 642.058 269.188C672.446 298.781 672.952 251.762 673.948 237.506" stroke="#F7F7FF" stroke-width="6" stroke-miterlimit="1.5" stroke-linecap="round" stroke-linejoin="round"/>
<path d="M581.573 287.401C595.234 271.761 624.68 252.263 642.058 269.188C672.446 298.781 672.952 251.762 673.948 237.506" stroke="#F7F7FF" stroke-width="6" stroke-miterlimit="1.5" stroke-linecap="round" stroke-linejoin="round"/>
<path d="M581.567 704.921C595.229 689.282 624.674 669.784 642.052 686.708C661.718 705.859 668.869 692.925 671.737 677.549" stroke="#F7F7FF" stroke-width="6" stroke-miterlimit="1.5" stroke-linecap="round" stroke-linejoin="round"/>
<path d="M663.68 710.64C668.854 695.443 672.083 647.586 698.84 649.921" stroke="#F7F7FF" stroke-width="6" stroke-miterlimit="1.5" stroke-linecap="round" stroke-linejoin="round"/>
<path d="M670.825 734.295C679.492 727.878 686.946 720.533 691.778 710.084C696.944 698.913 698.065 686.518 708.473 679.454C723.14 669.5 735.556 681.918 750.425 682.375C772.341 683.049 796.592 652.916 845.249 682.456" stroke="#F7F7FF" stroke-width="6" stroke-miterlimit="1.5" stroke-linecap="round" stroke-linejoin="round"/>
<path d="M670.828 316.503C679.495 310.086 686.949 302.741 691.781 292.292C696.947 281.121 698.068 268.726 708.476 261.662C723.144 251.708 735.559 264.126 750.428 264.583C774.598 267.834 787.317 235.259 844.479 264.027" stroke="#F7F7FF" stroke-width="6" stroke-miterlimit="1.5" stroke-linecap="round" stroke-linejoin="round"/>
<path d="M657.681 653.935C639.17 658.006 619.527 663.213 600.555 659.442C585.06 656.363 571.569 647.317 556.392 643.273C532.024 636.779 517.834 641.914 501.737 618.075" stroke="#F7F7FF" stroke-width="6" stroke-miterlimit="1.5" stroke-linecap="round" stroke-linejoin="round"/>
<path d="M466.206 649.222C475.445 636.235 486.836 620.76 484.58 603.796" stroke="#F7F7FF" stroke-width="6" stroke-miterlimit="1.5" stroke-linecap="round" stroke-linejoin="round"/>
<path d="M439.694 645.673C447.251 635.41 460.079 624.683 462.316 611.526C463.599 603.976 460.371 596.587 460.728 588.969C460.916 584.945 460.465 566.481 455.914 564.342C445.152 559.284 430.241 581.322 418.153 581.952" stroke="#F7F7FF" stroke-width="6" stroke-miterlimit="1.5" stroke-linecap="round" stroke-linejoin="round"/>
<path d="M445.371 604.13C431.415 605.898 417.281 607.766 404.203 613.148" stroke="#F7F7FF" stroke-width="6" stroke-miterlimit="1.5" stroke-linecap="round" stroke-linejoin="round"/>
<path d="M535.813 662.163C519.535 655.199 500.325 687.546 432.945 689.718" stroke="#F7F7FF" stroke-width="6" stroke-miterlimit="1.5" stroke-linecap="round" stroke-linejoin="round"/>
<path d="M535.813 662.163C519.535 655.199 500.325 687.546 432.945 689.718" stroke="#F7F7FF" stroke-width="6" stroke-miterlimit="1.5" stroke-linecap="round" stroke-linejoin="round"/>
<path d="M535.813 244.39C519.535 237.427 478.948 290.363 399.246 252.69" stroke="#F7F7FF" stroke-width="6" stroke-miterlimit="1.5" stroke-linecap="round" stroke-linejoin="round"/>
<path d="M535.813 661.829C516.969 655.436 478.599 708.535 394.286 666.962" stroke="#F7F7FF" stroke-width="6" stroke-miterlimit="1.5" stroke-linecap="round" stroke-linejoin="round"/>
<path d="M543.187 492.929C537.489 462.557 582.058 441.27 602.576 462.879C615.617 476.615 617.555 497.027 610.534 514.087C607.198 522.195 592.638 536.805 600.362 544.726C603.53 547.974 609.159 546.726 612.987 545.755C623.686 543.041 652.309 523.746 652.457 547.925C652.472 550.406 652.112 552.931 651.269 555.271C647.811 564.883 636.841 568.623 627.722 570.803C607.778 575.57 577.223 574.844 565.536 554.214C559.896 544.257 566.743 537.721 572.95 530.208C578.656 523.302 585.111 514.663 588.375 506.285C591.502 498.258 591.55 488.428 584.307 482.674C578.18 477.806 569.568 482.465 566.391 488.48C563.215 494.495 563.893 501.635 560.78 507.624C557.681 513.587 552.351 518.079 549.062 523.949C545.313 530.643 543.938 538.448 540.778 545.451C538.117 551.348 534.088 559.88 536.6 566.448C539.332 573.59 551.044 571.537 557.301 576.438C564.989 582.461 572.306 589.384 581.186 593.694C600.347 602.99 626.086 602.457 646.053 595.828C656.5 592.359 664.392 582.922 675.21 580.824C689.028 578.144 700.361 588.251 712.862 586.052C721.729 584.493 725.609 571.398 719.556 565.014C707.707 552.514 690.528 570.129 677.918 562.879" stroke="#F7F7FF" stroke-width="6" stroke-miterlimit="1.5" stroke-linecap="round" stroke-linejoin="round"/>
<path d="M668.788 390.56C685.812 385.53 700.028 378.941 705.133 360.468C706.354 356.049 706.973 351.619 706.723 347.032C706.05 334.648 700.581 316.598 720.095 316.879C741.816 317.192 735.994 350.519 733.858 364.056C733.116 368.758 732.697 374.45 729.981 378.516C725.363 385.432 715.943 387.406 711.696 394.383C708.891 398.991 712.261 404.124 715.887 406.995C735.468 422.499 761.951 399.953 763.295 379.021C764.053 367.199 757.19 354.395 762.364 342.968C766.949 332.842 778.504 333.918 784.614 341.963C790.092 349.174 798.706 358.543 799.158 367.221C799.651 376.677 797.922 384.994 799.158 394.383C800.539 404.873 801.412 423.246 793.044 430.015" stroke="#F7F7FF" stroke-width="6" stroke-miterlimit="1.5" stroke-linecap="round" stroke-linejoin="round"/>
</g>
<g clip-path="url(#clip2_422_1426)">
<path d="M64.8941 161.459C65.9141 163.459 67.4422 166.765 69.5795 167.752C73.0858 169.371 76.8193 166.661 79.9674 165.243C85.7943 162.619 92.3657 160.937 97.897 165.144C104.282 170 106.187 179.182 112.551 184.177C120.504 190.418 130.838 191.574 139.677 195.772C147.17 199.331 153.359 205.229 160.86 208.834C174.208 215.247 195.102 218.337 209.737 216.917C222.69 215.659 235.776 212.191 248.059 207.745C255.554 205.031 262.418 200.965 270.303 199.494C289.098 195.988 311.322 207.502 327.025 192.092C340.476 178.893 341.021 157.399 334.262 140.53C330.32 130.695 320.89 121.338 326.687 110.289C331.424 101.262 341.889 98.4115 350.192 94.4429C365.342 87.2027 378.447 74.6746 377.056 55.4679" stroke="#F7F7FF" stroke-width="6" stroke-miterlimit="1.5" stroke-linecap="round" stroke-linejoin="round"/>
<path d="M296.395 87.3471C297.636 91.2484 299.558 95.6779 299.373 99.8281C298.898 110.518 288.099 117.996 278.828 120.782C274.715 122.018 261.438 125.546 257.49 123.19C253.944 121.073 252.449 116.453 251.287 112.744C250.64 110.679 249.31 107.749 249.734 105.555C250.321 102.519 254.289 102.114 256.726 101.453C262.048 100.008 266.876 97.2319 270.994 93.5891C276.106 89.0656 279.738 83.0822 281.401 76.4829C282.597 71.7394 282.15 64.609 287.278 61.9623C291.287 59.8935 297.555 64.4036 300.845 66.2469C308.829 70.719 317.978 74.8862 327.339 73.632C336.082 72.46 342.465 68.9629 347.928 62.1314C350.49 58.927 352.118 53.7489 349.589 50.0421C346.859 46.0431 341.573 46.4506 337.42 47.471C331.878 48.8334 325.191 50.3707 319.488 49.1829C304.974 46.1604 292.121 26.7575 276.168 32.0286C267.268 34.9692 265.11 49.1574 260.212 56.1997C250.896 69.5958 233.881 73.2533 218.501 71.354" stroke="#F7F7FF" stroke-width="6" stroke-miterlimit="1.5" stroke-linecap="round" stroke-linejoin="round"/>
<path d="M42.1806 98.9363C47.9942 108.225 50.3031 122.646 59.1524 129.496C74.5927 141.447 101.196 126.282 102.326 108.131C103.169 94.5711 98.1776 82.7791 94.1422 70.2205C92.3757 64.7213 89.7917 55.0277 92.6212 49.4455C96.6307 41.5339 104.045 40.3264 111.318 36.5821C119.256 32.4954 126.375 26.8101 134.252 22.5267C149.844 14.0473 168.069 6.80543 184.94 16.299C195.259 22.1059 202.925 31.8675 212.781 38.4271C221.272 44.077 235.898 48.2902 242.053 37.1445C250.931 21.0667 231.141 18.3916 222.921 12.4958C215.31 7.03672 210.736 -1.3788 203.618 -7.31051C195.767 -13.8518 169.967 -17.0947 182.236 -34.0013C184.978 -37.7803 188.194 -40.9059 190.712 -44.9182C193.836 -49.8942 197.516 -55.4209 202.834 -58.2768C210.341 -62.3079 213.211 -57.7269 215.017 -50.298C218.939 -34.1729 216.399 -18.0637 232.735 -7.94807C247.252 1.04072 263.645 -3.45806 279.275 -0.12709C292.697 2.73376 302.713 12.244 315.559 16.0401" stroke="#F7F7FF" stroke-width="6" stroke-miterlimit="1.5" stroke-linecap="round" stroke-linejoin="round"/>
<path d="M41.3082 97.5019C40.1917 95.9901 38.8936 94.5066 37.4223 93.3292C27.8707 85.6815 20.4563 99.0338 17.3558 105.951C16.6644 107.493 16.1045 109.117 15.5329 110.708C14.7768 112.812 13.8687 114.876 12.8195 116.849C11.3548 119.601 9.70979 122.47 7.64307 124.821C1.95352 131.29 -7.0787 132.838 -12.9073 125.758C-15.8049 122.237 -17.2996 117.532 -17.9759 113.079C-19.3705 103.877 -17.4415 91.1995 -10.636 84.3509C-6.66534 80.3523 -1.28351 78.2129 3.46787 75.3366C9.67138 71.5798 15.358 67.0676 20.182 61.6332C23.6345 57.744 26.6264 53.2507 28.6882 48.4713C31.2229 42.5951 32.8546 36.4183 37.1308 31.4879C44.6195 22.8552 59.1972 16.4818 56.2349 2.83805C54.0605 -7.17575 37.697 -3.97254 31.3252 -1.2407C29.4948 -0.456182 27.715 0.476969 26.0895 1.6335C12.5577 11.259 14.3439 31.3659 5.396 44.3884C1.71097 49.7506 -6.65698 56.7023 -12.5064 50.0128C-25.2951 35.3833 -8.8239 17.4988 -3.85541 3.83759C-0.615454 -5.07855 -2.5945 -16.6451 6.52331 -22.3522C8.34912 -23.4954 10.324 -24.365 12.3769 -25.0089C19.2739 -27.1704 26.5676 -27.5511 33.4308 -25.0656C39.3224 -22.9325 44.797 -18.2931 51.4276 -18.8413" stroke="#F7F7FF" stroke-width="6" stroke-miterlimit="1.5" stroke-linecap="round" stroke-linejoin="round"/>
<path d="M458.825 97.5019C457.708 95.9901 456.41 94.5066 454.939 93.3292C445.387 85.6815 437.973 99.0338 434.873 105.951C434.181 107.493 433.621 109.117 433.05 110.708C432.293 112.812 431.385 114.876 430.336 116.849C428.871 119.601 427.226 122.47 425.16 124.821C419.47 131.29 410.436 132.838 404.61 125.758C401.713 122.237 400.215 117.532 399.54 113.079C398.146 103.877 400.076 91.1995 406.879 84.3509C410.851 80.3523 416.234 78.2129 420.984 75.3366C427.188 71.5798 432.875 67.0676 437.698 61.6332C441.151 57.744 444.143 53.2507 446.205 48.4713C448.74 42.5951 450.371 36.4183 454.648 31.4879C462.136 22.8552 476.714 16.4818 473.752 2.83805C471.577 -7.17575 455.213 -3.97254 448.842 -1.2407C447.012 -0.456182 445.232 0.476969 443.606 1.6335C430.074 11.259 431.861 31.3659 422.913 44.3884C419.228 49.7506 410.858 56.7023 405.01 50.0128C392.221 35.3833 408.694 17.4988 413.66 3.83759C416.901 -5.07855 414.923 -16.6451 424.04 -22.3522C425.866 -23.4954 427.841 -24.365 429.893 -25.0089C436.791 -27.1704 444.084 -27.5511 450.948 -25.0656C456.839 -22.9325 462.314 -18.2931 468.944 -18.8413" stroke="#F7F7FF" stroke-width="6" stroke-miterlimit="1.5" stroke-linecap="round" stroke-linejoin="round"/>
<path d="M72.3663 106.321C75.8731 88.4961 61.6682 77.7942 61.426 60.8997C61.1325 40.4525 83.1538 15.2013 94.5742 -0.689115" stroke="#F7F7FF" stroke-width="6" stroke-miterlimit="1.5" stroke-linecap="round" stroke-linejoin="round"/>
<path d="M110.509 12.4487C120.117 -0.0213409 128.969 3.69835 140.403 -6.44405C145.964 -11.3766 155.8 -20.6848 154.16 -28.7814C152.64 -36.2938 143.52 -44.2914 137.313 -43.2067C124.545 -40.975 103.788 -19.5262 91.9829 -26.6332C83.8262 -31.5437 79.1358 -40.3208 70.9186 -45.0337C62.344 -49.9517 53.232 -47.6199 44.1881 -50.3813C36.6627 -52.679 31.303 -58.6036 24.0436 -61.249C12.6653 -65.3958 -3.07767 -59.8407 -11.3028 -70.2808C-19.9497 -81.2578 -17.5531 -93.4673 -18.8516 -106.337C-19.7659 -115.389 -22.9182 -123.736 -25.3732 -132.417" stroke="#F7F7FF" stroke-width="6" stroke-miterlimit="1.5" stroke-linecap="round" stroke-linejoin="round"/>
<path d="M523.759 19.2271C533.367 6.75698 548.553 2.56092 559.988 -7.58189C565.549 -12.5145 570.886 -17.7656 569.247 -25.8626C567.726 -33.375 558.426 -34.7959 552.22 -33.7111C539.451 -31.4795 521.305 -19.5259 509.499 -26.6329C501.343 -31.5434 496.652 -40.3205 488.435 -45.0334C479.861 -49.9514 470.749 -47.6196 461.705 -50.381C454.179 -52.6787 448.82 -58.6033 441.561 -61.2487C430.182 -65.3955 414.44 -59.8404 406.216 -70.2805C397.568 -81.2575 399.965 -93.467 398.665 -106.336C397.751 -115.388 394.599 -123.736 392.144 -132.416" stroke="#F7F7FF" stroke-width="6" stroke-miterlimit="1.5" stroke-linecap="round" stroke-linejoin="round"/>
<path d="M145.841 310.418C145.841 300.228 154.187 291.136 147.292 257.955" stroke="#F7F7FF" stroke-width="6" stroke-miterlimit="1.5" stroke-linecap="round" stroke-linejoin="round"/>
<path d="M164.05 287.402C177.711 271.763 207.157 252.265 224.535 269.189C244.2 288.34 251.351 275.406 254.219 260.03" stroke="#F7F7FF" stroke-width="6" stroke-miterlimit="1.5" stroke-linecap="round" stroke-linejoin="round"/>
<path d="M246.162 293.121C251.337 277.924 254.566 230.067 281.322 232.402" stroke="#F7F7FF" stroke-width="6" stroke-miterlimit="1.5" stroke-linecap="round" stroke-linejoin="round"/>
<path d="M253.308 316.776C261.974 310.359 269.428 303.014 274.26 292.565C279.426 281.394 280.547 268.999 290.955 261.935C305.623 251.981 318.039 264.399 332.907 264.856C354.823 265.53 379.075 235.397 427.731 264.937" stroke="#F7F7FF" stroke-width="6" stroke-miterlimit="1.5" stroke-linecap="round" stroke-linejoin="round"/>
<path d="M240.163 236.416C221.652 240.487 202.009 245.694 183.037 241.923C167.543 238.844 154.052 229.798 138.875 225.754C114.507 219.26 100.317 224.395 84.2194 200.556" stroke="#F7F7FF" stroke-width="6" stroke-miterlimit="1.5" stroke-linecap="round" stroke-linejoin="round"/>
<path d="M48.6883 231.703C57.9272 218.716 69.3184 203.241 67.0622 186.277" stroke="#F7F7FF" stroke-width="6" stroke-miterlimit="1.5" stroke-linecap="round" stroke-linejoin="round"/>
<path d="M22.1767 228.154C29.7334 217.891 42.5613 207.164 44.7984 194.007C46.0818 186.457 42.8531 179.068 43.2101 171.45C43.398 167.425 42.9479 148.962 38.3961 146.823C27.6341 141.765 12.7236 163.803 0.635569 164.433" stroke="#F7F7FF" stroke-width="6" stroke-miterlimit="1.5" stroke-linecap="round" stroke-linejoin="round"/>
<path d="M411.343 225.483C368.892 220.202 371.737 238.889 313.797 243.751" stroke="#F7F7FF" stroke-width="6" stroke-miterlimit="1.5" stroke-linecap="round" stroke-linejoin="round"/>
<path d="M445.629 186.611C431.674 188.379 417.54 190.247 404.462 195.629" stroke="#F7F7FF" stroke-width="6" stroke-miterlimit="1.5" stroke-linecap="round" stroke-linejoin="round"/>
<path d="M27.853 186.611C13.8978 188.379 -0.236293 190.247 -13.3144 195.629" stroke="#F7F7FF" stroke-width="6" stroke-miterlimit="1.5" stroke-linecap="round" stroke-linejoin="round"/>
<path d="M354.588 7.75342C356.877 1.11068 359.07 -5.84145 359.919 -12.8303" stroke="#F7F7FF" stroke-width="6" stroke-miterlimit="1.5" stroke-linecap="round" stroke-linejoin="round"/>
<path d="M118.295 244.644C102.017 237.68 82.8079 270.027 15.4276 272.199" stroke="#F7F7FF" stroke-width="6" stroke-miterlimit="1.5" stroke-linecap="round" stroke-linejoin="round"/>
<path d="M118.295 244.644C102.017 237.68 82.8079 270.027 15.4276 272.199" stroke="#F7F7FF" stroke-width="6" stroke-miterlimit="1.5" stroke-linecap="round" stroke-linejoin="round"/>
<path d="M118.295 244.31C99.4511 237.917 61.0809 291.016 -23.2314 249.443" stroke="#F7F7FF" stroke-width="6" stroke-miterlimit="1.5" stroke-linecap="round" stroke-linejoin="round"/>
<path d="M377.21 200.028C379.874 199.589 383.148 199.177 385.428 197.556C389.493 194.668 390.041 189.203 389.664 184.544C388.868 174.715 384.978 165.374 383.707 155.603C382.411 145.641 383.549 136.108 383.303 126.169C383.122 118.832 381.264 109.614 372.227 110.565C353.768 112.508 357.096 134.935 360.008 147.327C360.694 150.245 361.249 153.166 361.616 156.146C362.102 160.094 362.544 164.156 362.38 168.138C362.065 175.725 360.629 183.33 358.748 190.668C357.222 196.619 355.368 202.707 351.853 207.791C341.873 222.224 320.557 225.773 304.519 223.215C297.136 222.037 290.174 219.301 283.087 217.005" stroke="#F7F7FF" stroke-width="6" stroke-miterlimit="1.5" stroke-linecap="round" stroke-linejoin="round"/>
<path d="M125.669 75.4095C119.971 45.0382 164.541 23.751 185.058 45.3601C198.1 59.0961 200.037 79.5078 193.017 96.5677C189.68 104.676 175.121 119.286 182.845 127.207C186.012 130.455 191.641 129.207 195.469 128.236C206.168 125.522 234.791 106.227 234.939 130.406C234.954 132.887 234.594 135.412 233.752 137.752C230.293 147.364 219.324 151.104 210.205 153.284C190.261 158.051 159.706 157.325 148.019 136.695C142.378 126.738 149.226 120.202 155.433 112.689C161.139 105.783 167.593 97.1443 170.857 88.7664C173.985 80.7391 174.033 70.9094 166.79 65.1552C160.662 60.2865 152.051 64.946 148.874 70.9608C145.698 76.9756 146.375 84.116 143.262 90.1049C140.163 96.0675 134.834 100.56 131.545 106.43C127.795 113.124 126.42 120.929 123.261 127.932C120.6 133.828 116.571 142.361 119.082 148.929C121.814 156.071 133.526 154.018 139.783 158.919C147.472 164.942 154.788 171.865 163.669 176.175C182.829 185.471 208.568 184.938 228.535 178.309C238.982 174.84 246.875 165.403 257.692 163.305C271.511 160.625 282.843 170.732 295.344 168.533C304.211 166.974 308.091 153.879 302.039 147.495C290.189 134.995 273.011 152.61 260.401 145.36" stroke="#F7F7FF" stroke-width="6" stroke-miterlimit="1.5" stroke-linecap="round" stroke-linejoin="round"/>
<path d="M251.27 -26.9591C268.294 -31.989 282.51 -38.5783 287.615 -57.051C288.836 -61.4705 289.455 -65.8999 289.206 -70.4872C288.532 -82.8713 283.064 -100.921 302.577 -100.64C324.298 -100.327 318.477 -67.0001 316.34 -53.4629C315.598 -48.7607 315.179 -43.0687 312.463 -39.0029C307.846 -32.0875 298.426 -30.1126 294.178 -23.1363C291.373 -18.5281 294.744 -13.3952 298.37 -10.5239C317.95 4.9799 344.434 -17.5657 345.777 -38.4981C346.536 -50.3202 339.672 -63.1243 344.846 -74.5514C349.432 -84.6767 360.986 -83.6015 367.096 -75.5563C372.575 -68.3449 381.188 -58.9762 381.64 -50.2976C382.133 -40.8421 380.404 -32.5251 381.64 -23.1363C383.021 -12.6465 383.895 5.72684 375.527 12.4961" stroke="#F7F7FF" stroke-width="6" stroke-miterlimit="1.5" stroke-linecap="round" stroke-linejoin="round"/>
</g>
<g clip-path="url(#clip3_422_1426)">
<path d="M64.8941 578.979C65.9141 580.978 67.4422 584.284 69.5795 585.271C73.0858 586.89 76.8193 584.18 79.9674 582.762C85.7943 580.138 92.3657 578.456 97.897 582.663C104.282 587.519 106.187 596.701 112.551 601.696C120.504 607.937 130.838 609.093 139.677 613.291C147.17 616.85 153.359 622.748 160.86 626.353C174.208 632.766 195.102 635.856 209.737 634.436C222.69 633.178 235.776 629.71 248.059 625.264C255.554 622.551 262.418 618.484 270.303 617.013C289.098 613.507 311.322 625.021 327.025 609.611C340.476 596.412 341.021 574.918 334.262 558.05C330.32 548.214 320.89 538.857 326.687 527.809C331.424 518.781 341.889 515.931 350.192 511.962C365.342 504.722 378.447 492.194 377.056 472.987" stroke="#F7F7FF" stroke-width="6" stroke-miterlimit="1.5" stroke-linecap="round" stroke-linejoin="round"/>
<path d="M296.395 504.866C297.636 508.767 299.558 513.197 299.373 517.347C298.898 528.037 288.099 535.515 278.828 538.301C274.715 539.537 261.438 543.065 257.49 540.709C253.944 538.592 252.449 533.972 251.287 530.263C250.64 528.198 249.31 525.268 249.734 523.074C250.321 520.038 254.289 519.633 256.726 518.972C262.048 517.527 266.876 514.751 270.994 511.108C276.106 506.585 279.738 500.601 281.401 494.002C282.597 489.258 282.15 482.128 287.278 479.481C291.287 477.413 297.555 481.923 300.845 483.766C308.829 488.238 317.978 492.405 327.339 491.151C336.082 489.979 342.465 486.482 347.928 479.65C350.49 476.446 352.118 471.268 349.589 467.561C346.859 463.562 341.573 463.97 337.42 464.99C331.878 466.352 325.191 467.89 319.488 466.702C304.974 463.679 292.121 444.276 276.168 449.548C267.268 452.488 265.11 466.676 260.212 473.719C250.896 487.115 233.881 490.772 218.501 488.873" stroke="#F7F7FF" stroke-width="6" stroke-miterlimit="1.5" stroke-linecap="round" stroke-linejoin="round"/>
<path d="M42.1806 516.455C47.9942 525.744 50.3031 540.165 59.1524 547.015C74.5927 558.966 101.196 543.801 102.326 525.65C103.169 512.09 98.1776 500.298 94.1422 487.74C92.3757 482.24 89.7917 472.547 92.6212 466.965C96.6307 459.053 104.045 457.845 111.318 454.101C119.256 450.014 126.375 444.329 134.252 440.046C149.844 431.566 168.069 424.324 184.94 433.818C195.259 439.625 202.925 449.387 212.781 455.946C221.272 461.596 235.898 465.809 242.053 454.664C250.931 438.586 231.141 435.911 222.921 430.015C215.31 424.556 210.736 416.14 203.618 410.209C195.767 403.667 169.967 400.424 182.236 383.518C184.978 379.739 188.194 376.613 190.712 372.601C193.836 367.625 197.516 362.098 202.834 359.242C210.341 355.211 213.211 359.792 215.017 367.221C218.939 383.346 216.399 399.455 232.735 409.571C247.252 418.56 263.645 414.061 279.275 417.392C292.697 420.253 302.713 429.763 315.559 433.559" stroke="#F7F7FF" stroke-width="6" stroke-miterlimit="1.5" stroke-linecap="round" stroke-linejoin="round"/>
<path d="M41.3082 515.021C40.1917 513.509 38.8936 512.026 37.4223 510.848C27.8707 503.201 20.4563 516.553 17.3558 523.47C16.6644 525.012 16.1045 526.636 15.5329 528.227C14.7768 530.331 13.8687 532.395 12.8195 534.368C11.3548 537.12 9.70979 539.989 7.64307 542.34C1.95352 548.809 -7.0787 550.357 -12.9073 543.277C-15.8049 539.756 -17.2996 535.051 -17.9759 530.598C-19.3705 521.396 -17.4415 508.719 -10.636 501.87C-6.66534 497.871 -1.28351 495.732 3.46787 492.856C9.67138 489.099 15.358 484.587 20.182 479.152C23.6345 475.263 26.6264 470.77 28.6882 465.99C31.2229 460.114 32.8546 453.937 37.1308 449.007C44.6195 440.374 59.1972 434.001 56.2349 420.357C54.0605 410.343 37.697 413.547 31.3252 416.278C29.4948 417.063 27.715 417.996 26.0895 419.153C12.5577 428.778 14.3439 448.885 5.396 461.907C1.71097 467.27 -6.65698 474.221 -12.5064 467.532C-25.2951 452.902 -8.8239 435.018 -3.85541 421.357C-0.615454 412.44 -2.5945 400.874 6.52331 395.167C8.34912 394.024 10.324 393.154 12.3769 392.51C19.2739 390.349 26.5676 389.968 33.4308 392.453C39.3224 394.587 44.797 399.226 51.4276 398.678" stroke="#F7F7FF" stroke-width="6" stroke-miterlimit="1.5" stroke-linecap="round" stroke-linejoin="round"/>
<path d="M458.825 515.021C457.708 513.509 456.41 512.026 454.939 510.848C445.387 503.201 437.973 516.553 434.873 523.47C434.181 525.012 433.621 526.636 433.05 528.227C432.293 530.331 431.385 532.395 430.336 534.368C428.871 537.12 427.226 539.989 425.16 542.34C419.47 548.809 410.436 550.357 404.61 543.277C401.713 539.756 400.215 535.051 399.54 530.598C398.146 521.396 400.076 508.719 406.879 501.87C410.851 497.871 416.234 495.732 420.984 492.856C427.188 489.099 432.875 484.587 437.698 479.152C441.151 475.263 444.143 470.77 446.205 465.99C448.74 460.114 450.371 453.937 454.648 449.007C462.136 440.374 476.714 434.001 473.752 420.357C471.577 410.343 455.213 413.547 448.842 416.278C447.012 417.063 445.232 417.996 443.606 419.153C430.074 428.778 431.861 448.885 422.913 461.907C419.228 467.27 410.858 474.221 405.01 467.532C392.221 452.902 408.694 435.018 413.66 421.357C416.901 412.44 414.923 400.874 424.04 395.167C425.866 394.024 427.841 393.154 429.893 392.51C436.791 390.349 444.084 389.968 450.948 392.453C456.839 394.587 462.314 399.226 468.944 398.678" stroke="#F7F7FF" stroke-width="6" stroke-miterlimit="1.5" stroke-linecap="round" stroke-linejoin="round"/>
<path d="M72.3663 523.84C75.8731 506.015 61.6682 495.313 61.426 478.419C61.1325 457.972 83.1538 432.72 94.5742 416.83" stroke="#F7F7FF" stroke-width="6" stroke-miterlimit="1.5" stroke-linecap="round" stroke-linejoin="round"/>
<path d="M110.509 429.968C120.117 417.498 128.969 421.217 140.403 411.075C145.964 406.142 155.8 396.834 154.16 388.738C152.64 381.225 143.52 373.228 137.313 374.312C124.545 376.544 103.788 397.993 91.9829 390.886C83.8262 385.975 79.1358 377.198 70.9186 372.485C62.344 367.567 53.232 369.899 44.1881 367.138C36.6627 364.84 31.303 358.915 24.0436 356.27C12.6653 352.123 -3.07767 357.678 -11.3028 347.238C-19.9497 336.261 -17.5531 324.052 -18.8516 311.183C-19.7659 302.13 -22.9182 293.783 -25.3732 285.103" stroke="#F7F7FF" stroke-width="6" stroke-miterlimit="1.5" stroke-linecap="round" stroke-linejoin="round"/>
<path d="M523.759 436.746C533.367 424.276 548.553 420.08 559.988 409.937C565.549 405.005 570.886 399.753 569.247 391.656C567.726 384.144 558.426 382.723 552.22 383.808C539.451 386.04 521.305 397.993 509.499 390.886C501.343 385.976 496.652 377.199 488.435 372.486C479.861 367.568 470.749 369.899 461.705 367.138C454.179 364.84 448.82 358.916 441.561 356.27C430.182 352.124 414.44 357.679 406.216 347.239C397.568 336.262 399.965 324.052 398.665 311.183C397.751 302.131 394.599 293.783 392.144 285.103" stroke="#F7F7FF" stroke-width="6" stroke-miterlimit="1.5" stroke-linecap="round" stroke-linejoin="round"/>
<path d="M74.3789 307.672C53.6294 295.817 39.1594 286.555 14.284 288.363C-0.382627 289.429 -3.05895 311.986 7.45336 320.27C14.9771 326.199 26.4643 324.604 35.3804 324.642C47.8622 324.694 61.6087 326.526 73.0483 331.772C84.0236 336.806 91.4304 346.893 101.315 353.526C103.948 355.292 109.875 359.246 112.25 355.805C120.958 343.186 107.255 328.883 101.745 318.031C97.102 308.887 95.2056 297.854 93.713 287.775" stroke="#F7F7FF" stroke-width="6" stroke-miterlimit="1.5" stroke-linecap="round" stroke-linejoin="round"/>
<path d="M491.905 307.672C471.156 295.817 456.686 286.555 431.811 288.363C417.145 289.429 414.467 311.986 424.98 320.27C432.504 326.199 443.991 324.604 452.907 324.642C465.389 324.694 479.135 326.526 490.575 331.772C501.55 336.806 508.957 346.893 518.842 353.526C521.474 355.292 527.402 359.246 529.776 355.805C538.484 343.186 524.781 328.883 519.271 318.031C514.628 308.887 512.732 297.854 511.239 287.775" stroke="#F7F7FF" stroke-width="6" stroke-miterlimit="1.5" stroke-linecap="round" stroke-linejoin="round"/>
<path d="M262.713 349.362C255.816 358.701 247.658 358.648 240.093 349.704C230.933 338.878 228.76 323 212.006 322.132C187.006 320.836 183.764 353.952 162.175 363.889" stroke="#F7F7FF" stroke-width="6" stroke-miterlimit="1.5" stroke-linecap="round" stroke-linejoin="round"/>
<path d="M238.492 313.973C230.332 300.866 215.394 291.273 199.495 295.523C186.656 298.956 173.764 309.981 164.74 319.367C159.416 324.904 149.705 343.36 140.52 340.449C133.826 338.328 130.243 330.842 128.989 324.43C126.356 310.963 131.402 297.471 124.467 284.727" stroke="#F7F7FF" stroke-width="6" stroke-miterlimit="1.5" stroke-linecap="round" stroke-linejoin="round"/>
<path d="M145.841 310.417C145.841 300.227 154.187 291.135 147.292 257.954" stroke="#F7F7FF" stroke-width="6" stroke-miterlimit="1.5" stroke-linecap="round" stroke-linejoin="round"/>
<path d="M145.841 727.937C145.841 717.747 154.187 708.655 147.292 675.474" stroke="#F7F7FF" stroke-width="6" stroke-miterlimit="1.5" stroke-linecap="round" stroke-linejoin="round"/>
<path d="M164.055 287.401C177.717 271.761 207.162 252.263 224.54 269.188C254.928 298.781 255.434 251.762 256.431 237.506" stroke="#F7F7FF" stroke-width="6" stroke-miterlimit="1.5" stroke-linecap="round" stroke-linejoin="round"/>
<path d="M164.055 287.401C177.717 271.761 207.162 252.263 224.54 269.188C254.928 298.781 255.434 251.762 256.431 237.506" stroke="#F7F7FF" stroke-width="6" stroke-miterlimit="1.5" stroke-linecap="round" stroke-linejoin="round"/>
<path d="M164.05 704.921C177.711 689.282 207.157 669.784 224.535 686.708C244.2 705.859 251.351 692.925 254.219 677.549" stroke="#F7F7FF" stroke-width="6" stroke-miterlimit="1.5" stroke-linecap="round" stroke-linejoin="round"/>
<path d="M246.162 710.64C251.337 695.443 254.566 647.586 281.322 649.921" stroke="#F7F7FF" stroke-width="6" stroke-miterlimit="1.5" stroke-linecap="round" stroke-linejoin="round"/>
<path d="M253.308 734.295C261.974 727.878 269.428 720.533 274.26 710.084C279.426 698.913 280.547 686.518 290.955 679.454C305.623 669.5 318.039 681.918 332.907 682.375C354.823 683.049 379.075 652.916 427.731 682.456" stroke="#F7F7FF" stroke-width="6" stroke-miterlimit="1.5" stroke-linecap="round" stroke-linejoin="round"/>
<path d="M253.311 316.503C261.977 310.086 269.431 302.741 274.263 292.292C279.43 281.121 280.55 268.726 290.959 261.662C305.626 251.708 318.042 264.126 332.911 264.583C357.081 267.834 369.8 235.259 426.961 264.027" stroke="#F7F7FF" stroke-width="6" stroke-miterlimit="1.5" stroke-linecap="round" stroke-linejoin="round"/>
<path d="M367.778 284.355C374.213 315.64 350.291 321.609 313.801 289.547" stroke="#F7F7FF" stroke-width="6" stroke-miterlimit="1.5" stroke-linecap="round" stroke-linejoin="round"/>
<path d="M240.163 653.935C221.652 658.006 202.009 663.213 183.037 659.442C167.543 656.363 154.052 647.317 138.875 643.273C114.507 636.779 100.317 641.914 84.2194 618.075" stroke="#F7F7FF" stroke-width="6" stroke-miterlimit="1.5" stroke-linecap="round" stroke-linejoin="round"/>
<path d="M48.6883 649.222C57.9272 636.235 69.3184 620.76 67.0622 603.796" stroke="#F7F7FF" stroke-width="6" stroke-miterlimit="1.5" stroke-linecap="round" stroke-linejoin="round"/>
<path d="M22.1767 645.673C29.7334 635.41 42.5613 624.683 44.7984 611.526C46.0818 603.976 42.8531 596.587 43.2101 588.969C43.398 584.945 42.9479 566.481 38.3961 564.342C27.6341 559.284 12.7236 581.322 0.635569 581.952" stroke="#F7F7FF" stroke-width="6" stroke-miterlimit="1.5" stroke-linecap="round" stroke-linejoin="round"/>
<path d="M411.343 643.002C368.892 637.721 371.737 656.408 313.797 661.27" stroke="#F7F7FF" stroke-width="6" stroke-miterlimit="1.5" stroke-linecap="round" stroke-linejoin="round"/>
<path d="M445.629 604.13C431.674 605.898 417.54 607.766 404.462 613.148" stroke="#F7F7FF" stroke-width="6" stroke-miterlimit="1.5" stroke-linecap="round" stroke-linejoin="round"/>
<path d="M27.853 604.13C13.8978 605.898 -0.236293 607.766 -13.3144 613.148" stroke="#F7F7FF" stroke-width="6" stroke-miterlimit="1.5" stroke-linecap="round" stroke-linejoin="round"/>
<path d="M354.588 425.272C356.877 418.63 359.07 411.678 359.919 404.689" stroke="#F7F7FF" stroke-width="6" stroke-miterlimit="1.5" stroke-linecap="round" stroke-linejoin="round"/>
<path d="M118.295 662.163C102.017 655.199 82.8079 687.546 15.4276 689.718" stroke="#F7F7FF" stroke-width="6" stroke-miterlimit="1.5" stroke-linecap="round" stroke-linejoin="round"/>
<path d="M118.295 662.163C102.017 655.199 82.8079 687.546 15.4276 689.718" stroke="#F7F7FF" stroke-width="6" stroke-miterlimit="1.5" stroke-linecap="round" stroke-linejoin="round"/>
<path d="M118.295 244.39C102.017 237.427 61.4304 290.363 -18.2713 252.69" stroke="#F7F7FF" stroke-width="6" stroke-miterlimit="1.5" stroke-linecap="round" stroke-linejoin="round"/>
<path d="M118.295 661.829C99.4511 655.436 61.0809 708.535 -23.2314 666.962" stroke="#F7F7FF" stroke-width="6" stroke-miterlimit="1.5" stroke-linecap="round" stroke-linejoin="round"/>
<path d="M377.21 617.547C379.874 617.108 383.148 616.697 385.428 615.075C389.493 612.187 390.041 606.722 389.664 602.063C388.868 592.234 384.978 582.893 383.707 573.122C382.411 563.16 383.549 553.627 383.303 543.688C383.122 536.351 381.264 527.133 372.227 528.084C353.768 530.027 357.096 552.454 360.008 564.846C360.694 567.764 361.249 570.685 361.616 573.665C362.102 577.613 362.544 581.675 362.38 585.657C362.065 593.244 360.629 600.85 358.748 608.187C357.222 614.138 355.368 620.226 351.853 625.31C341.873 639.743 320.557 643.292 304.519 640.734C297.136 639.557 290.174 636.82 283.087 634.524" stroke="#F7F7FF" stroke-width="6" stroke-miterlimit="1.5" stroke-linecap="round" stroke-linejoin="round"/>
<path d="M125.669 492.929C119.971 462.557 164.541 441.27 185.058 462.879C198.1 476.615 200.037 497.027 193.017 514.087C189.68 522.195 175.121 536.805 182.845 544.726C186.012 547.974 191.641 546.726 195.469 545.755C206.168 543.041 234.791 523.746 234.939 547.925C234.954 550.406 234.594 552.931 233.752 555.271C230.293 564.883 219.324 568.623 210.205 570.803C190.261 575.57 159.706 574.844 148.019 554.214C142.378 544.257 149.226 537.721 155.433 530.208C161.139 523.302 167.593 514.663 170.857 506.285C173.985 498.258 174.033 488.428 166.79 482.674C160.662 477.806 152.051 482.465 148.874 488.48C145.698 494.495 146.375 501.635 143.262 507.624C140.163 513.587 134.834 518.079 131.545 523.949C127.795 530.643 126.42 538.448 123.261 545.451C120.6 551.348 116.571 559.88 119.082 566.448C121.814 573.59 133.526 571.537 139.783 576.438C147.472 582.461 154.788 589.384 163.669 593.694C182.829 602.99 208.568 602.457 228.535 595.828C238.982 592.359 246.875 582.922 257.692 580.824C271.511 578.144 282.843 588.251 295.344 586.052C304.211 584.493 308.091 571.398 302.039 565.014C290.189 552.514 273.011 570.129 260.401 562.879" stroke="#F7F7FF" stroke-width="6" stroke-miterlimit="1.5" stroke-linecap="round" stroke-linejoin="round"/>
<path d="M251.27 390.56C268.294 385.53 282.51 378.941 287.615 360.468C288.836 356.049 289.455 351.619 289.206 347.032C288.532 334.648 283.064 316.598 302.577 316.879C324.298 317.192 318.477 350.519 316.34 364.056C315.598 368.758 315.179 374.45 312.463 378.516C307.846 385.432 298.426 387.406 294.178 394.383C291.373 398.991 294.744 404.124 298.37 406.995C317.95 422.499 344.434 399.953 345.777 379.021C346.536 367.199 339.672 354.395 344.846 342.968C349.432 332.842 360.986 333.918 367.096 341.963C372.575 349.174 381.188 358.543 381.64 367.221C382.133 376.677 380.404 384.994 381.64 394.383C383.021 404.873 383.895 423.246 375.527 430.015" stroke="#F7F7FF" stroke-width="6" stroke-miterlimit="1.5" stroke-linecap="round" stroke-linejoin="round"/>
</g>
</g>
</g>
<defs>
<radialGradient id="paint0_radial_422_1426" cx="0" cy="0" r="1" gradientUnits="userSpaceOnUse" gradientTransform="translate(1360 680) rotate(135) scale(642.937)">
<stop stop-color="white"/>
<stop offset="1" stop-color="white" stop-opacity="0"/>
</radialGradient>
<clipPath id="clip0_422_1426">
<rect width="417.52" height="417.52" fill="white" transform="matrix(-1 0 0 -1 835.044 262.481)"/>
</clipPath>
<clipPath id="clip1_422_1426">
<rect width="417.52" height="417.52" fill="white" transform="matrix(-1 0 0 -1 835.044 680)"/>
</clipPath>
<clipPath id="clip2_422_1426">
<rect width="417.52" height="417.52" fill="white" transform="matrix(-1 0 0 -1 417.526 262.481)"/>
</clipPath>
<clipPath id="clip3_422_1426">
<rect width="417.52" height="417.52" fill="white" transform="matrix(-1 0 0 -1 417.526 680)"/>
</clipPath>
</defs>
</svg>
