<svg width="149" height="104" viewBox="0 0 149 104" fill="none" xmlns="http://www.w3.org/2000/svg">
<path d="M114.702 140.24C114.702 140.24 91.4415 47.1646 10.6605 24.6046M120.232 124.165C120.232 124.165 97.7806 35.7283 3.57262 5.24587M124.995 105.71C124.995 105.71 86.288 7.6551 0.546952 -9.01405M142.595 100.661C142.595 100.661 90.4444 -1.35277 7.95327 -22.8577M161.496 91.8294C161.496 91.8294 101.447 21.9966 57.825 -29.4949M183.162 74.9601C183.162 74.9601 117.136 34.7967 72.3082 -39.3176M90.1164 131.782C90.1164 131.782 91.1869 67.6415 17.9414 40.3284" stroke="url(#paint0_linear_12_1014)" stroke-width="3"/>
<defs>
<linearGradient id="paint0_linear_12_1014" x1="107.966" y1="133.693" x2="16.5313" y2="6.00254" gradientUnits="userSpaceOnUse">
<stop stop-color="#7372FF"/>
<stop offset="1" stop-color="white" stop-opacity="0"/>
</linearGradient>
</defs>
</svg>
