<svg width="152" height="104" viewBox="0 0 152 104" fill="none" xmlns="http://www.w3.org/2000/svg">
<path d="M-4.99997 -32C-4.99997 -32 47.2738 48.4459 131 43.4999M-4.99996 -15C-4.99996 -15 44.9999 61.3224 144 59.4999M-3.49997 4C-3.49997 4 64.9999 84.1299 151.5 72M-18.4999 14.4999C-18.4999 14.4999 63.9999 93.9999 149 87.4999M-33.4999 28.9999C-33.4999 28.9999 46 75.4999 104 110M-48.4999 52C-48.4999 52 27 68.4999 93.5 124M21 -32C21 -32 40.8533 28.9999 119 31" stroke="url(#paint0_linear_12_1012)" stroke-width="3"/>
<defs>
<linearGradient id="paint0_linear_12_1012" x1="3.5" y1="-28" x2="131.5" y2="63" gradientUnits="userSpaceOnUse">
<stop stop-color="#7372FF"/>
<stop offset="1" stop-color="white" stop-opacity="0"/>
</linearGradient>
</defs>
</svg>
